<svg width="834" height="217" viewBox="0 0 834 217" fill="none" xmlns="http://www.w3.org/2000/svg">
<path fill-rule="evenodd" clip-rule="evenodd" d="M124.712 131.625C126.04 130.131 127.672 128.55 129.149 127.013C147.487 108.018 153.536 78.5408 145.72 53.6048C144.345 49.2235 142.817 45.6554 140.925 41.9834L136.257 33.9381C130.147 26.0715 126.203 20.9701 116.061 14.1395C99.3521 2.88479 78.9334 -0.749876 59.4614 3.36346C33.2721 8.89812 12.0841 27.4235 4.06941 53.5581C-7.08393 89.9488 9.27208 127.973 44.2094 143.83C53.4854 148.041 64.4934 150.687 74.7947 150.603C85.9841 150.507 90.6334 148.81 100.513 146.079C101.915 147.351 105.452 152.546 106.336 154.278C101.531 158.423 100.304 158.018 103.773 164.411C105.597 167.783 107.768 171.043 109.797 174.366L134.057 214.074C135.604 216.041 137.037 216.839 139.671 215.714L164.423 200.674C167.012 199.062 173.076 196.813 169.781 191.626C165.545 184.954 161.621 178.026 157.723 171.731C153.607 165.094 149.591 158.591 145.608 151.858C143.579 148.423 141.585 145.359 139.551 141.923C135.284 134.734 134.112 139.179 129.337 139.915C128.428 138.194 124.983 132.975 124.72 131.614L124.712 131.625ZM84.6934 10.3221C122.633 15.4501 145.665 52.0501 140.509 85.7648C134.631 124.189 99.3814 146.885 65.0441 141.985C54.8761 140.537 45.2681 136.379 37.6081 131.21C33.9161 128.711 30.9307 126.119 27.9321 123.193C24.2601 119.607 23.1974 117.966 20.4214 114.149C-11.7413 70.0288 23.8187 2.09413 84.6881 10.3208L84.6934 10.3221ZM109.444 142.537C110.375 141.638 116.392 137.887 117.64 137.442C118.291 138.029 121.307 143.282 121.731 144.45L113.308 149.142L109.44 142.535L109.444 142.537ZM133.413 148.419C134.771 149.489 160.104 191.947 160.488 192.95C156.523 195.531 152.717 197.313 149.869 199.181C146.311 201.507 142.757 203.586 139.205 205.393C137.985 204.258 127.969 186.85 125.717 183.421L118.989 172.381C116.723 168.774 114.345 164.978 112.403 161.305L133.413 148.419Z" fill="#D1AA09"/>
<path d="M238.973 52.1989H222.557C222.257 50.0751 221.645 48.1886 220.72 46.5395C219.796 44.8654 218.609 43.4412 217.16 42.2669C215.711 41.0925 214.036 40.193 212.138 39.5683C210.264 38.9437 208.227 38.6314 206.028 38.6314C202.056 38.6314 198.595 39.6183 195.647 41.5922C192.698 43.5412 190.412 46.3896 188.788 50.1375C187.164 53.8605 186.352 58.383 186.352 63.7051C186.352 69.1771 187.164 73.7745 188.788 77.4975C190.437 81.2204 192.736 84.0314 195.684 85.9304C198.632 87.8293 202.043 88.7788 205.916 88.7788C208.09 88.7788 210.101 88.4915 211.95 87.9168C213.824 87.3421 215.486 86.505 216.935 85.4056C218.384 84.2813 219.583 82.9195 220.533 81.3204C221.507 79.7213 222.182 77.8973 222.557 75.8484L238.973 75.9234C238.548 79.4464 237.486 82.8446 235.787 86.1178C234.113 89.366 231.852 92.2769 229.003 94.8505C226.18 97.3991 222.807 99.4229 218.884 100.922C214.986 102.396 210.576 103.133 205.654 103.133C198.807 103.133 192.686 101.584 187.289 98.486C181.917 95.3877 177.669 90.9026 174.546 85.0309C171.447 79.1591 169.898 72.0505 169.898 63.7051C169.898 55.3347 171.472 48.2136 174.621 42.3418C177.769 36.47 182.042 31.9975 187.439 28.9242C192.836 25.8259 198.907 24.2767 205.654 24.2767C210.101 24.2767 214.224 24.9014 218.022 26.1507C221.845 27.4 225.23 29.224 228.179 31.6227C231.127 33.9964 233.526 36.9073 235.375 40.3554C237.249 43.8035 238.448 47.7513 238.973 52.1989ZM321.146 63.7051C321.146 72.0755 319.56 79.1966 316.387 85.0683C313.238 90.9401 308.941 95.4251 303.494 98.5234C298.072 101.597 291.975 103.133 285.204 103.133C278.382 103.133 272.261 101.584 266.839 98.486C261.417 95.3877 257.132 90.9026 253.983 85.0309C250.835 79.1591 249.261 72.0505 249.261 63.7051C249.261 55.3347 250.835 48.2136 253.983 42.3418C257.132 36.47 261.417 31.9975 266.839 28.9242C272.261 25.8259 278.382 24.2767 285.204 24.2767C291.975 24.2767 298.072 25.8259 303.494 28.9242C308.941 31.9975 313.238 36.47 316.387 42.3418C319.56 48.2136 321.146 55.3347 321.146 63.7051ZM304.693 63.7051C304.693 58.2831 303.881 53.7106 302.257 49.9876C300.658 46.2647 298.396 43.4412 295.473 41.5173C292.55 39.5933 289.126 38.6314 285.204 38.6314C281.281 38.6314 277.858 39.5933 274.934 41.5173C272.011 43.4412 269.737 46.2647 268.113 49.9876C266.514 53.7106 265.714 58.2831 265.714 63.7051C265.714 69.1271 266.514 73.6996 268.113 77.4225C269.737 81.1455 272.011 83.9689 274.934 85.8929C277.858 87.8168 281.281 88.7788 285.204 88.7788C289.126 88.7788 292.55 87.8168 295.473 85.8929C298.396 83.9689 300.658 81.1455 302.257 77.4225C303.881 73.6996 304.693 69.1271 304.693 63.7051ZM397.37 25.3262V102.084H383.353L349.959 53.773H349.396V102.084H333.168V25.3262H347.41L380.542 73.5996H381.216V25.3262H397.37ZM481.315 63.7051C481.315 72.0755 479.728 79.1966 476.555 85.0683C473.406 90.9401 469.109 95.4251 463.662 98.5234C458.24 101.597 452.143 103.133 445.372 103.133C438.551 103.133 432.429 101.584 427.007 98.486C421.585 95.3877 417.3 90.9026 414.152 85.0309C411.003 79.1591 409.429 72.0505 409.429 63.7051C409.429 55.3347 411.003 48.2136 414.152 42.3418C417.3 36.47 421.585 31.9975 427.007 28.9242C432.429 25.8259 438.551 24.2767 445.372 24.2767C452.143 24.2767 458.24 25.8259 463.662 28.9242C469.109 31.9975 473.406 36.47 476.555 42.3418C479.728 48.2136 481.315 55.3347 481.315 63.7051ZM464.861 63.7051C464.861 58.2831 464.049 53.7106 462.425 49.9876C460.826 46.2647 458.565 43.4412 455.641 41.5173C452.718 39.5933 449.295 38.6314 445.372 38.6314C441.449 38.6314 438.026 39.5933 435.103 41.5173C432.179 43.4412 429.905 46.2647 428.281 49.9876C426.682 53.7106 425.883 58.2831 425.883 63.7051C425.883 69.1271 426.682 73.6996 428.281 77.4225C429.905 81.1455 432.179 83.9689 435.103 85.8929C438.026 87.8168 441.449 88.7788 445.372 88.7788C449.295 88.7788 452.718 87.8168 455.641 85.8929C458.565 83.9689 460.826 81.1455 462.425 77.4225C464.049 73.6996 464.861 69.1271 464.861 63.7051ZM561.061 52.1989H544.645C544.346 50.0751 543.733 48.1886 542.809 46.5395C541.884 44.8654 540.698 43.4412 539.248 42.2669C537.799 41.0925 536.125 40.193 534.226 39.5683C532.352 38.9437 530.316 38.6314 528.117 38.6314C524.144 38.6314 520.684 39.6183 517.735 41.5922C514.787 43.5412 512.501 46.3896 510.876 50.1375C509.252 53.8605 508.44 58.383 508.44 63.7051C508.44 69.1771 509.252 73.7745 510.876 77.4975C512.526 81.2204 514.824 84.0314 517.773 85.9304C520.721 87.8293 524.132 88.7788 528.005 88.7788C530.178 88.7788 532.19 88.4915 534.039 87.9168C535.913 87.3421 537.574 86.505 539.024 85.4056C540.473 84.2813 541.672 82.9195 542.622 81.3204C543.596 79.7213 544.271 77.8973 544.645 75.8484L561.061 75.9234C560.637 79.4464 559.575 82.8446 557.876 86.1178C556.202 89.366 553.94 92.2769 551.092 94.8505C548.268 97.3991 544.895 99.4229 540.972 100.922C537.075 102.396 532.665 103.133 527.742 103.133C520.896 103.133 514.774 101.584 509.377 98.486C504.005 95.3877 499.758 90.9026 496.634 85.0309C493.536 79.1591 491.987 72.0505 491.987 63.7051C491.987 55.3347 493.561 48.2136 496.709 42.3418C499.858 36.47 504.13 31.9975 509.527 28.9242C514.924 25.8259 520.996 24.2767 527.742 24.2767C532.19 24.2767 536.313 24.9014 540.11 26.1507C543.933 27.4 547.319 29.224 550.267 31.6227C553.216 33.9964 555.614 36.9073 557.463 40.3554C559.337 43.8035 560.537 47.7513 561.061 52.1989ZM572.699 102.084V25.3262H624.42V38.7063H588.927V56.9963H621.759V70.3764H588.927V88.7038H624.57V102.084H572.699ZM637.323 102.084V25.3262H653.551V88.7038H686.458V102.084H637.323ZM697.205 102.084V25.3262H748.927V38.7063H713.434V56.9963H746.266V70.3764H713.434V88.7038H749.077V102.084H697.205ZM803.469 47.4015C803.169 44.3782 801.882 42.0295 799.608 40.3554C797.335 38.6813 794.249 37.8443 790.351 37.8443C787.703 37.8443 785.466 38.2191 783.642 38.9687C781.818 39.6933 780.419 40.7052 779.445 42.0045C778.495 43.3038 778.02 44.778 778.02 46.4271C777.97 47.8013 778.258 49.0007 778.882 50.0251C779.532 51.0495 780.419 51.9365 781.543 52.6861C782.668 53.4107 783.967 54.0479 785.441 54.5976C786.915 55.1223 788.49 55.572 790.164 55.9468L797.06 57.5959C800.408 58.3455 803.481 59.345 806.28 60.5943C809.078 61.8436 811.502 63.3803 813.551 65.2042C815.6 67.0282 817.186 69.1771 818.311 71.6507C819.46 74.1243 820.047 76.9603 820.072 80.1585C820.047 84.856 818.848 88.9287 816.474 92.3768C814.125 95.7999 810.727 98.461 806.28 100.36C801.857 102.234 796.523 103.171 790.276 103.171C784.08 103.171 778.682 102.221 774.085 100.322C769.513 98.4235 765.939 95.6125 763.366 91.8896C760.817 88.1416 759.481 83.5067 759.356 77.9847H775.059C775.234 80.5583 775.971 82.7071 777.271 84.4312C778.595 86.1303 780.357 87.417 782.555 88.2916C784.779 89.1411 787.29 89.5659 790.089 89.5659C792.837 89.5659 795.223 89.1661 797.247 88.3665C799.296 87.567 800.883 86.4551 802.007 85.0309C803.132 83.6066 803.694 81.97 803.694 80.1211C803.694 78.397 803.182 76.9478 802.157 75.7734C801.158 74.5991 799.683 73.5996 797.735 72.7751C795.811 71.9505 793.449 71.201 790.651 70.5263L782.293 68.4275C775.822 66.8533 770.712 64.3922 766.964 61.044C763.216 57.6959 761.354 53.1859 761.379 47.514C761.354 42.8665 762.591 38.8063 765.09 35.3332C767.614 31.8601 771.074 29.1491 775.472 27.2001C779.869 25.2512 784.867 24.2767 790.463 24.2767C796.16 24.2767 801.133 25.2512 805.38 27.2001C809.653 29.1491 812.976 31.8601 815.35 35.3332C817.724 38.8063 818.948 42.829 819.023 47.4015H803.469Z" fill="#867100"/>
<path d="M243.744 139.91H239.828C239.596 138.783 239.191 137.793 238.612 136.941C238.043 136.088 237.348 135.372 236.527 134.793C235.717 134.203 234.816 133.761 233.827 133.466C232.837 133.172 231.806 133.024 230.732 133.024C228.773 133.024 227 133.519 225.41 134.509C223.831 135.498 222.573 136.956 221.636 138.883C220.709 140.81 220.246 143.173 220.246 145.974C220.246 148.774 220.709 151.138 221.636 153.064C222.573 154.991 223.831 156.449 225.41 157.439C227 158.428 228.773 158.923 230.732 158.923C231.806 158.923 232.837 158.776 233.827 158.481C234.816 158.186 235.717 157.749 236.527 157.17C237.348 156.581 238.043 155.859 238.612 155.007C239.191 154.143 239.596 153.154 239.828 152.038H243.744C243.449 153.691 242.912 155.17 242.133 156.475C241.354 157.781 240.386 158.891 239.228 159.807C238.07 160.713 236.769 161.402 235.327 161.876C233.895 162.35 232.363 162.587 230.732 162.587C227.973 162.587 225.52 161.913 223.373 160.565C221.225 159.218 219.535 157.302 218.303 154.817C217.072 152.332 216.456 149.385 216.456 145.974C216.456 142.563 217.072 139.615 218.303 137.13C219.535 134.646 221.225 132.729 223.373 131.382C225.52 130.034 227.973 129.361 230.732 129.361C232.363 129.361 233.895 129.597 235.327 130.071C236.769 130.545 238.07 131.24 239.228 132.156C240.386 133.061 241.354 134.167 242.133 135.472C242.912 136.767 243.449 138.246 243.744 139.91ZM251.399 162.145H247.293L259.169 129.803H263.212L275.087 162.145H270.981L261.317 134.919H261.064L251.399 162.145ZM252.915 149.511H269.465V152.985H252.915V149.511ZM305.771 129.803V162.145H301.981L284.357 136.751H284.041V162.145H280.125V129.803H283.915L301.602 155.259H301.918V129.803H305.771ZM323.588 162.145H313.608V129.803H324.03C327.168 129.803 329.852 130.45 332.084 131.745C334.316 133.03 336.027 134.877 337.216 137.288C338.406 139.688 339.001 142.563 339.001 145.91C339.001 149.279 338.401 152.18 337.201 154.612C336 157.033 334.253 158.897 331.958 160.202C329.663 161.497 326.873 162.145 323.588 162.145ZM317.524 158.67H323.335C326.009 158.67 328.226 158.154 329.984 157.123C331.742 156.091 333.053 154.622 333.916 152.717C334.779 150.811 335.211 148.542 335.211 145.91C335.211 143.3 334.784 141.052 333.932 139.167C333.079 137.272 331.805 135.819 330.11 134.809C328.415 133.788 326.304 133.277 323.778 133.277H317.524V158.67ZM349.487 129.803V162.145H345.57V129.803H349.487ZM367.32 162.145H357.339V129.803H367.762C370.899 129.803 373.584 130.45 375.816 131.745C378.048 133.03 379.759 134.877 380.948 137.288C382.138 139.688 382.733 142.563 382.733 145.91C382.733 149.279 382.133 152.18 380.932 154.612C379.732 157.033 377.985 158.897 375.689 160.202C373.394 161.497 370.604 162.145 367.32 162.145ZM361.256 158.67H367.067C369.741 158.67 371.957 158.154 373.715 157.123C375.474 156.091 376.784 154.622 377.648 152.717C378.511 150.811 378.943 148.542 378.943 145.91C378.943 143.3 378.516 141.052 377.663 139.167C376.811 137.272 375.537 135.819 373.842 134.809C372.147 133.788 370.036 133.277 367.509 133.277H361.256V158.67ZM389.109 162.145H385.003L396.878 129.803H400.921L412.797 162.145H408.691L399.026 134.919H398.773L389.109 162.145ZM390.625 149.511H407.175V152.985H390.625V149.511ZM412.287 133.277V129.803H436.544V133.277H426.374V162.145H422.457V133.277H412.287ZM440.136 162.145H436.03L447.906 129.803H451.949L463.824 162.145H459.718L450.054 134.919H449.801L440.136 162.145ZM441.652 149.511H458.202V152.985H441.652V149.511ZM486.549 137.888C486.359 136.288 485.591 135.046 484.243 134.161C482.895 133.277 481.243 132.835 479.284 132.835C477.853 132.835 476.6 133.066 475.526 133.53C474.463 133.993 473.631 134.63 473.031 135.44C472.441 136.251 472.146 137.172 472.146 138.204C472.146 139.067 472.352 139.81 472.762 140.431C473.183 141.041 473.72 141.552 474.373 141.962C475.026 142.363 475.71 142.694 476.426 142.957C477.142 143.21 477.8 143.415 478.4 143.573L481.685 144.458C482.527 144.679 483.464 144.984 484.496 145.374C485.538 145.763 486.533 146.295 487.48 146.969C488.438 147.632 489.228 148.485 489.849 149.527C490.47 150.569 490.781 151.848 490.781 153.364C490.781 155.112 490.323 156.691 489.407 158.102C488.502 159.513 487.175 160.634 485.427 161.465C483.69 162.297 481.579 162.713 479.095 162.713C476.779 162.713 474.773 162.339 473.078 161.592C471.394 160.844 470.067 159.802 469.099 158.465C468.141 157.128 467.598 155.575 467.472 153.806H471.515C471.62 155.028 472.031 156.038 472.747 156.838C473.473 157.628 474.389 158.218 475.494 158.607C476.61 158.986 477.81 159.176 479.095 159.176C480.59 159.176 481.932 158.934 483.122 158.449C484.311 157.954 485.254 157.27 485.949 156.396C486.643 155.512 486.991 154.48 486.991 153.301C486.991 152.227 486.691 151.353 486.091 150.68C485.491 150.006 484.701 149.458 483.722 149.037C482.743 148.616 481.685 148.248 480.548 147.932L476.568 146.795C474.041 146.068 472.041 145.031 470.567 143.684C469.093 142.336 468.356 140.573 468.356 138.394C468.356 136.583 468.846 135.004 469.825 133.656C470.815 132.298 472.141 131.245 473.805 130.498C475.479 129.74 477.347 129.361 479.411 129.361C481.495 129.361 483.348 129.734 484.969 130.482C486.591 131.219 487.875 132.229 488.823 133.514C489.781 134.798 490.286 136.256 490.339 137.888H486.549ZM506.948 129.803H511.433L520.403 144.9H520.782L529.751 129.803H534.236L522.55 148.816V162.145H518.634V148.816L506.948 129.803ZM577.834 139.91H573.917C573.686 138.783 573.28 137.793 572.701 136.941C572.133 136.088 571.438 135.372 570.617 134.793C569.806 134.203 568.906 133.761 567.916 133.466C566.927 133.172 565.895 133.024 564.821 133.024C562.863 133.024 561.089 133.519 559.499 134.509C557.92 135.498 556.662 136.956 555.725 138.883C554.799 140.81 554.335 143.173 554.335 145.974C554.335 148.774 554.799 151.138 555.725 153.064C556.662 154.991 557.92 156.449 559.499 157.439C561.089 158.428 562.863 158.923 564.821 158.923C565.895 158.923 566.927 158.776 567.916 158.481C568.906 158.186 569.806 157.749 570.617 157.17C571.438 156.581 572.133 155.859 572.701 155.007C573.28 154.143 573.686 153.154 573.917 152.038H577.834C577.539 153.691 577.002 155.17 576.223 156.475C575.444 157.781 574.475 158.891 573.317 159.807C572.159 160.713 570.859 161.402 569.417 161.876C567.985 162.35 566.453 162.587 564.821 162.587C562.063 162.587 559.61 161.913 557.462 160.565C555.314 159.218 553.625 157.302 552.393 154.817C551.161 152.332 550.545 149.385 550.545 145.974C550.545 142.563 551.161 139.615 552.393 137.13C553.625 134.646 555.314 132.729 557.462 131.382C559.61 130.034 562.063 129.361 564.821 129.361C566.453 129.361 567.985 129.597 569.417 130.071C570.859 130.545 572.159 131.24 573.317 132.156C574.475 133.061 575.444 134.167 576.223 135.472C577.002 136.767 577.539 138.246 577.834 139.91ZM585.489 162.145H581.383L593.258 129.803H597.301L609.177 162.145H605.071L595.406 134.919H595.153L585.489 162.145ZM587.005 149.511H603.555V152.985H587.005V149.511ZM639.86 129.803V162.145H636.07L618.447 136.751H618.131V162.145H614.214V129.803H618.004L635.691 155.259H636.007V129.803H639.86ZM657.678 162.145H647.697V129.803H658.12C661.257 129.803 663.942 130.45 666.174 131.745C668.406 133.03 670.116 134.877 671.306 137.288C672.496 139.688 673.09 142.563 673.09 145.91C673.09 149.279 672.49 152.18 671.29 154.612C670.09 157.033 668.342 158.897 666.047 160.202C663.752 161.497 660.962 162.145 657.678 162.145ZM651.613 158.67H657.425C660.099 158.67 662.315 158.154 664.073 157.123C665.831 156.091 667.142 154.622 668.005 152.717C668.869 150.811 669.3 148.542 669.3 145.91C669.3 143.3 668.874 141.052 668.021 139.167C667.169 137.272 665.895 135.819 664.2 134.809C662.505 133.788 660.394 133.277 657.867 133.277H651.613V158.67ZM683.576 129.803V162.145H679.66V129.803H683.576ZM701.409 162.145H691.429V129.803H701.851C704.989 129.803 707.673 130.45 709.905 131.745C712.137 133.03 713.848 134.877 715.038 137.288C716.227 139.688 716.822 142.563 716.822 145.91C716.822 149.279 716.222 152.18 715.022 154.612C713.822 157.033 712.074 158.897 709.779 160.202C707.484 161.497 704.694 162.145 701.409 162.145ZM695.345 158.67H701.157C703.831 158.67 706.047 158.154 707.805 157.123C709.563 156.091 710.874 154.622 711.737 152.717C712.6 150.811 713.032 148.542 713.032 145.91C713.032 143.3 712.606 141.052 711.753 139.167C710.9 137.272 709.626 135.819 707.931 134.809C706.236 133.788 704.126 133.277 701.599 133.277H695.345V158.67ZM723.198 162.145H719.092L730.968 129.803H735.011L746.886 162.145H742.78L733.115 134.919H732.863L723.198 162.145ZM724.714 149.511H741.264V152.985H724.714V149.511ZM746.377 133.277V129.803H770.633V133.277H760.463V162.145H756.547V133.277H746.377ZM802.62 145.974C802.62 149.385 802.004 152.332 800.772 154.817C799.54 157.302 797.85 159.218 795.703 160.565C793.555 161.913 791.102 162.587 788.344 162.587C785.585 162.587 783.132 161.913 780.985 160.565C778.837 159.218 777.147 157.302 775.915 154.817C774.684 152.332 774.068 149.385 774.068 145.974C774.068 142.563 774.684 139.615 775.915 137.13C777.147 134.646 778.837 132.729 780.985 131.382C783.132 130.034 785.585 129.361 788.344 129.361C791.102 129.361 793.555 130.034 795.703 131.382C797.85 132.729 799.54 134.646 800.772 137.13C802.004 139.615 802.62 142.563 802.62 145.974ZM798.83 145.974C798.83 143.173 798.361 140.81 797.424 138.883C796.498 136.956 795.24 135.498 793.65 134.509C792.071 133.519 790.302 133.024 788.344 133.024C786.386 133.024 784.612 133.519 783.022 134.509C781.443 135.498 780.185 136.956 779.248 138.883C778.321 140.81 777.858 143.173 777.858 145.974C777.858 148.774 778.321 151.138 779.248 153.064C780.185 154.991 781.443 156.449 783.022 157.439C784.612 158.428 786.386 158.923 788.344 158.923C790.302 158.923 792.071 158.428 793.65 157.439C795.24 156.449 796.498 154.991 797.424 153.064C798.361 151.138 798.83 148.774 798.83 145.974ZM826.892 137.888C826.702 136.288 825.934 135.046 824.586 134.161C823.239 133.277 821.586 132.835 819.627 132.835C818.196 132.835 816.943 133.066 815.869 133.53C814.806 133.993 813.974 134.63 813.374 135.44C812.784 136.251 812.49 137.172 812.49 138.204C812.49 139.067 812.695 139.81 813.105 140.431C813.527 141.041 814.063 141.552 814.716 141.962C815.369 142.363 816.053 142.694 816.769 142.957C817.485 143.21 818.143 143.415 818.743 143.573L822.028 144.458C822.87 144.679 823.807 144.984 824.839 145.374C825.881 145.763 826.876 146.295 827.823 146.969C828.782 147.632 829.571 148.485 830.192 149.527C830.813 150.569 831.124 151.848 831.124 153.364C831.124 155.112 830.666 156.691 829.75 158.102C828.845 159.513 827.518 160.634 825.771 161.465C824.033 162.297 821.923 162.713 819.438 162.713C817.122 162.713 815.116 162.339 813.421 161.592C811.737 160.844 810.41 159.802 809.442 158.465C808.484 157.128 807.941 155.575 807.815 153.806H811.858C811.963 155.028 812.374 156.038 813.09 156.838C813.816 157.628 814.732 158.218 815.837 158.607C816.953 158.986 818.154 159.176 819.438 159.176C820.933 159.176 822.275 158.934 823.465 158.449C824.655 157.954 825.597 157.27 826.292 156.396C826.987 155.512 827.334 154.48 827.334 153.301C827.334 152.227 827.034 151.353 826.434 150.68C825.834 150.006 825.044 149.458 824.065 149.037C823.086 148.616 822.028 148.248 820.891 147.932L816.911 146.795C814.385 146.068 812.384 145.031 810.91 143.684C809.436 142.336 808.7 140.573 808.7 138.394C808.7 136.583 809.189 135.004 810.168 133.656C811.158 132.298 812.484 131.245 814.148 130.498C815.822 129.74 817.69 129.361 819.754 129.361C821.838 129.361 823.691 129.734 825.313 130.482C826.934 131.219 828.218 132.229 829.166 133.514C830.124 134.798 830.629 136.256 830.682 137.888H826.892Z" fill="black"/>
</svg>
