<svg width="524" height="365" viewBox="0 0 524 365" fill="none" xmlns="http://www.w3.org/2000/svg">
<mask id="mask0_834_2460" style="mask-type:luminance" maskUnits="userSpaceOnUse" x="0" y="0" width="524" height="365">
<path d="M0.5 0H524V364.5H0.5V0Z" fill="white"/>
</mask>
<g mask="url(#mask0_834_2460)">
<path d="M131.047 326.791C131.047 326.11 130.858 325.571 130.478 325.17C130.098 324.771 129.587 324.571 128.945 324.571C128.302 324.571 127.751 324.731 127.294 325.052C126.835 325.375 126.519 325.946 126.343 326.763L122.137 325.77C122.409 324.366 123.131 323.246 124.299 322.41C125.467 321.572 127.114 321.152 129.237 321.152C130.658 321.152 131.871 321.363 132.875 321.782C133.878 322.2 134.646 322.823 135.182 323.651C135.717 324.479 135.986 325.496 135.986 326.704V332.051C135.986 332.81 136.326 333.19 137.007 333.19C137.359 333.19 137.641 333.152 137.855 333.072L137.563 335.907C136.979 336.179 136.267 336.316 135.431 336.316C134.671 336.316 133.999 336.195 133.414 335.951C132.83 335.708 132.373 335.338 132.041 334.842C131.71 334.344 131.545 333.716 131.545 332.956V332.78L132.099 332.576C132.099 333.415 131.851 334.115 131.354 334.679C130.858 335.246 130.215 335.664 129.426 335.935C128.638 336.21 127.814 336.346 126.958 336.346C125.965 336.346 125.098 336.188 124.358 335.878C123.618 335.567 123.047 335.114 122.647 334.519C122.25 333.926 122.049 333.19 122.049 332.314C122.049 331.262 122.366 330.39 122.999 329.699C123.631 329.007 124.63 328.524 125.994 328.252L131.515 327.114L131.486 329.743L128.681 330.327C128.098 330.443 127.665 330.615 127.381 330.838C127.099 331.062 126.958 331.399 126.958 331.846C126.958 332.275 127.114 332.596 127.425 332.81C127.737 333.026 128.107 333.131 128.535 333.131C128.866 333.131 129.182 333.083 129.485 332.986C129.787 332.888 130.054 332.738 130.289 332.532C130.522 332.327 130.707 332.07 130.843 331.758C130.979 331.447 131.047 331.076 131.047 330.647V326.791Z" fill="#202020"/>
<path d="M139.812 336.053V321.445H144.254L144.401 324.279C144.867 323.246 145.525 322.469 146.373 321.941C147.218 321.417 148.198 321.153 149.309 321.153C150.399 321.153 151.343 321.397 152.142 321.882C152.939 322.37 153.535 323.091 153.923 324.045C154.235 323.403 154.641 322.867 155.138 322.438C155.634 322.01 156.203 321.689 156.846 321.475C157.489 321.259 158.151 321.153 158.833 321.153C159.807 321.153 160.663 321.342 161.403 321.723C162.143 322.103 162.734 322.677 163.171 323.446C163.61 324.217 163.828 325.174 163.828 326.325V336.053H158.862V327.463C158.862 326.529 158.681 325.877 158.322 325.506C157.961 325.137 157.478 324.951 156.877 324.951C156.389 324.951 155.944 325.074 155.546 325.317C155.147 325.559 154.84 325.926 154.626 326.411C154.411 326.899 154.303 327.513 154.303 328.253V336.053H149.338V327.463C149.338 326.529 149.151 325.877 148.782 325.506C148.413 325.137 147.935 324.951 147.351 324.951C146.902 324.951 146.478 325.067 146.079 325.301C145.681 325.535 145.365 325.901 145.131 326.398C144.897 326.894 144.779 327.542 144.779 328.339V336.053H139.812Z" fill="#202020"/>
<path d="M175.457 326.791C175.457 326.11 175.267 325.571 174.886 325.17C174.506 324.771 173.995 324.571 173.354 324.571C172.71 324.571 172.161 324.731 171.702 325.052C171.245 325.375 170.929 325.946 170.753 326.763L166.546 325.77C166.818 324.366 167.539 323.246 168.707 322.41C169.877 321.572 171.522 321.152 173.646 321.152C175.066 321.152 176.281 321.363 177.283 321.782C178.286 322.2 179.054 322.823 179.591 323.651C180.126 324.479 180.394 325.496 180.394 326.704V332.051C180.394 332.81 180.734 333.19 181.417 333.19C181.767 333.19 182.05 333.152 182.265 333.072L181.971 335.907C181.387 336.179 180.677 336.316 179.839 336.316C179.081 336.316 178.407 336.195 177.823 335.951C177.238 335.708 176.782 335.338 176.45 334.842C176.118 334.344 175.954 333.716 175.954 332.956V332.78L176.509 332.576C176.509 333.415 176.261 334.115 175.763 334.679C175.267 335.246 174.623 335.664 173.835 335.935C173.047 336.21 172.223 336.346 171.367 336.346C170.374 336.346 169.507 336.188 168.766 335.878C168.026 335.567 167.457 335.114 167.057 334.519C166.658 333.926 166.458 333.19 166.458 332.314C166.458 331.262 166.775 330.39 167.407 329.699C168.041 329.007 169.038 328.524 170.402 328.252L175.925 327.114L175.895 329.743L173.09 330.327C172.506 330.443 172.073 330.615 171.79 330.838C171.507 331.062 171.367 331.399 171.367 331.846C171.367 332.275 171.522 332.596 171.833 332.81C172.145 333.026 172.515 333.131 172.943 333.131C173.275 333.131 173.591 333.083 173.894 332.986C174.195 332.888 174.463 332.738 174.697 332.532C174.93 332.327 175.115 332.07 175.251 331.758C175.387 331.447 175.457 331.076 175.457 330.647V326.791Z" fill="#202020"/>
<path d="M189.159 336.346C188.166 336.346 187.294 336.175 186.544 335.835C185.795 335.492 185.204 334.943 184.775 334.183C184.348 333.424 184.134 332.431 184.134 331.203V321.444H189.1V330.035C189.1 330.97 189.286 331.622 189.656 331.992C190.026 332.363 190.551 332.548 191.232 332.548C191.584 332.548 191.914 332.484 192.226 332.358C192.538 332.231 192.811 332.038 193.043 331.774C193.278 331.51 193.458 331.17 193.584 330.751C193.711 330.331 193.775 329.84 193.775 329.275V321.444H198.742V336.052H194.3L194.154 333.307C193.688 334.34 193.034 335.104 192.198 335.6C191.359 336.098 190.347 336.346 189.159 336.346Z" fill="#202020"/>
<path d="M207.214 315.252V331.086C207.214 331.73 207.322 332.187 207.535 332.46C207.75 332.732 208.11 332.868 208.618 332.868C208.908 332.868 209.151 332.85 209.347 332.81C209.542 332.771 209.775 332.714 210.048 332.635L209.727 335.615C209.376 335.83 208.918 336.004 208.354 336.142C207.788 336.278 207.232 336.346 206.688 336.346C205.13 336.346 204 335.984 203.299 335.264C202.598 334.544 202.247 333.366 202.247 331.73V315.252H207.214Z" fill="#202020"/>
<path d="M216.826 336.053H211.86V321.445H216.826V336.053ZM214.344 319.751C213.33 319.751 212.594 319.561 212.137 319.182C211.68 318.802 211.45 318.202 211.45 317.385C211.45 316.547 211.68 315.939 212.137 315.558C212.594 315.178 213.33 314.989 214.344 314.989C215.337 314.989 216.066 315.178 216.534 315.558C217.002 315.939 217.236 316.547 217.236 317.385C217.236 318.202 217.002 318.802 216.534 319.182C216.066 319.561 215.337 319.751 214.344 319.751Z" fill="#202020"/>
<path d="M228.016 332.693C228.872 332.693 229.545 332.377 230.032 331.744C230.52 331.112 230.762 330.113 230.762 328.751C230.762 327.387 230.524 326.388 230.046 325.755C229.569 325.123 228.902 324.805 228.045 324.805C227.5 324.805 227.022 324.957 226.613 325.259C226.205 325.56 225.888 326.003 225.665 326.588C225.44 327.172 225.328 327.893 225.328 328.751C225.328 329.568 225.43 330.273 225.634 330.868C225.84 331.463 226.146 331.916 226.554 332.227C226.965 332.539 227.45 332.693 228.016 332.693ZM220.361 342.189V321.445H224.83L225.094 326.733L224.509 326.12C224.645 325.147 224.948 324.289 225.416 323.549C225.882 322.808 226.486 322.225 227.228 321.796C227.968 321.368 228.813 321.153 229.769 321.153C230.976 321.153 232.028 321.451 232.924 322.045C233.82 322.639 234.516 323.495 235.013 324.615C235.509 325.736 235.758 327.093 235.758 328.692C235.758 330.288 235.505 331.663 234.998 332.811C234.492 333.961 233.785 334.837 232.881 335.44C231.974 336.044 230.917 336.345 229.71 336.345C228.385 336.345 227.314 335.951 226.496 335.163C225.678 334.373 225.133 333.375 224.861 332.168L225.328 331.467V342.189H220.361Z" fill="#202020"/>
<path d="M246.685 326.791C246.685 326.11 246.496 325.571 246.116 325.17C245.736 324.771 245.224 324.571 244.581 324.571C243.94 324.571 243.389 324.731 242.932 325.052C242.473 325.375 242.156 325.946 241.981 326.763L237.775 325.77C238.047 324.366 238.769 323.246 239.936 322.41C241.104 321.572 242.752 321.152 244.875 321.152C246.296 321.152 247.508 321.363 248.512 321.782C249.515 322.2 250.284 322.823 250.82 323.651C251.355 324.479 251.623 325.496 251.623 326.704V332.051C251.623 332.81 251.964 333.19 252.645 333.19C252.996 333.19 253.279 333.152 253.493 333.072L253.201 335.907C252.616 336.179 251.905 336.316 251.068 336.316C250.308 336.316 249.636 336.195 249.052 335.951C248.468 335.708 248.009 335.338 247.679 334.842C247.347 334.344 247.183 333.716 247.183 332.956V332.78L247.737 332.576C247.737 333.415 247.489 334.115 246.992 334.679C246.496 335.246 245.853 335.664 245.064 335.935C244.275 336.21 243.452 336.346 242.595 336.346C241.601 336.346 240.735 336.188 239.995 335.878C239.255 335.567 238.684 335.114 238.285 334.519C237.887 333.926 237.687 333.19 237.687 332.314C237.687 331.262 238.003 330.39 238.636 329.699C239.269 329.007 240.268 328.524 241.632 328.252L247.153 327.114L247.124 329.743L244.319 330.327C243.735 330.443 243.301 330.615 243.019 330.838C242.736 331.062 242.595 331.399 242.595 331.846C242.595 332.275 242.752 332.596 243.063 332.81C243.375 333.026 243.745 333.131 244.172 333.131C244.504 333.131 244.82 333.083 245.123 332.986C245.425 332.888 245.692 332.738 245.927 332.532C246.159 332.327 246.344 332.07 246.481 331.758C246.617 331.447 246.685 331.076 246.685 330.647V326.791Z" fill="#202020"/>
<path d="M261.585 336.346C260.124 336.346 258.765 336.107 257.509 335.63C256.253 335.154 255.216 334.467 254.398 333.57L256.736 330.823C257.221 331.447 257.87 331.968 258.678 332.386C259.486 332.806 260.386 333.014 261.38 333.014C261.985 333.014 262.481 332.927 262.87 332.751C263.26 332.576 263.456 332.304 263.456 331.934C263.456 331.662 263.357 331.442 263.162 331.276C262.969 331.111 262.578 330.97 261.994 330.852L259.949 330.444C258.118 330.074 256.818 329.523 256.049 328.794C255.28 328.063 254.894 327.103 254.894 325.915C254.894 325.118 255.138 324.352 255.626 323.622C256.112 322.891 256.861 322.298 257.874 321.839C258.888 321.383 260.182 321.152 261.761 321.152C263.24 321.152 264.545 321.367 265.676 321.796C266.805 322.224 267.701 322.848 268.364 323.666L265.997 326.354C265.529 325.77 264.925 325.311 264.185 324.98C263.445 324.65 262.705 324.483 261.966 324.483C261.497 324.483 261.104 324.528 260.782 324.615C260.46 324.703 260.221 324.826 260.065 324.98C259.91 325.138 259.833 325.331 259.833 325.564C259.833 325.819 259.953 326.036 260.197 326.222C260.441 326.407 260.894 326.568 261.556 326.704L264.214 327.23C265.714 327.503 266.794 328 267.457 328.719C268.12 329.442 268.45 330.308 268.45 331.32C268.45 332.275 268.198 333.131 267.692 333.891C267.185 334.652 266.424 335.25 265.412 335.688C264.4 336.127 263.124 336.346 261.585 336.346Z" fill="#202020"/>
<path d="M287.412 332.255C289.048 332.255 290.24 331.763 290.991 330.781C291.74 329.798 292.116 328.341 292.116 326.413C292.116 324.483 291.74 323.029 290.991 322.045C290.24 321.061 289.048 320.569 287.412 320.569H284.753V332.255H287.412ZM287.909 316.771C290.928 316.771 293.241 317.609 294.848 319.283C296.453 320.959 297.257 323.335 297.257 326.413C297.257 329.491 296.453 331.866 294.848 333.542C293.241 335.217 290.928 336.053 287.909 336.053H279.727V316.771H287.909Z" fill="#202020"/>
<path d="M307.483 336.346C305.865 336.346 304.468 336.043 303.289 335.44C302.112 334.836 301.201 333.97 300.559 332.839C299.916 331.71 299.595 330.347 299.595 328.75C299.595 327.152 299.916 325.788 300.559 324.659C301.201 323.53 302.103 322.663 303.261 322.059C304.419 321.455 305.749 321.152 307.249 321.152C308.788 321.152 310.099 321.451 311.179 322.044C312.26 322.639 313.083 323.458 313.648 324.499C314.212 325.54 314.495 326.732 314.495 328.078C314.495 328.428 314.484 328.778 314.465 329.13C314.445 329.48 314.416 329.771 314.377 330.006H302.808V327.347H312.187L309.82 328.254C309.82 327.084 309.611 326.19 309.192 325.564C308.772 324.942 308.125 324.63 307.249 324.63C306.627 324.63 306.095 324.776 305.656 325.068C305.219 325.36 304.888 325.819 304.663 326.442C304.439 327.066 304.328 327.863 304.328 328.836C304.328 329.791 304.455 330.566 304.708 331.159C304.96 331.754 305.321 332.182 305.788 332.444C306.256 332.708 306.821 332.839 307.483 332.839C308.223 332.839 308.812 332.694 309.251 332.402C309.688 332.11 310.015 331.699 310.229 331.175L314.204 332.49C313.929 333.327 313.459 334.034 312.785 334.607C312.113 335.182 311.315 335.615 310.389 335.907C309.465 336.199 308.496 336.346 307.483 336.346Z" fill="#202020"/>
<path d="M324.194 321.152C325.674 321.152 326.907 321.362 327.891 321.782C328.874 322.199 329.643 322.755 330.199 323.446C330.754 324.139 331.098 324.883 331.235 325.682L326.65 327.2C326.513 326.363 326.263 325.735 325.905 325.316C325.543 324.898 325.022 324.688 324.342 324.688C323.717 324.688 323.195 324.83 322.778 325.111C322.359 325.394 322.042 325.842 321.827 326.455C321.614 327.07 321.506 327.854 321.506 328.808C321.506 329.762 321.623 330.536 321.858 331.13C322.091 331.724 322.423 332.152 322.851 332.416C323.279 332.679 323.786 332.81 324.37 332.81C324.857 332.81 325.261 332.718 325.582 332.532C325.905 332.348 326.171 332.079 326.386 331.73C326.601 331.378 326.735 330.95 326.794 330.443L331.265 331.875C331.129 332.732 330.763 333.496 330.17 334.168C329.575 334.84 328.791 335.371 327.817 335.76C326.843 336.151 325.703 336.346 324.399 336.346C322.802 336.346 321.409 336.047 320.222 335.454C319.033 334.859 318.118 333.992 317.474 332.854C316.833 331.714 316.511 330.346 316.511 328.75C316.511 327.151 316.833 325.783 317.474 324.644C318.118 323.504 319.018 322.638 320.178 322.044C321.335 321.45 322.675 321.152 324.194 321.152Z" fill="#202020"/>
<path d="M338.802 336.053H333.836V321.445H338.802V336.053ZM336.318 319.751C335.306 319.751 334.57 319.561 334.114 319.182C333.654 318.802 333.426 318.202 333.426 317.385C333.426 316.547 333.654 315.939 334.114 315.558C334.57 315.178 335.306 314.989 336.318 314.989C337.312 314.989 338.042 315.178 338.509 315.558C338.978 315.939 339.212 316.547 339.212 317.385C339.212 318.202 338.978 318.802 338.509 319.182C338.042 319.561 337.312 319.751 336.318 319.751Z" fill="#202020"/>
<path d="M349.436 332.694C350 332.694 350.483 332.544 350.882 332.242C351.282 331.939 351.587 331.487 351.803 330.883C352.016 330.279 352.124 329.539 352.124 328.662C352.124 327.844 352.022 327.148 351.816 326.574C351.612 326 351.311 325.56 350.911 325.259C350.512 324.958 350.03 324.806 349.464 324.806C348.608 324.806 347.932 325.123 347.435 325.755C346.939 326.388 346.691 327.387 346.691 328.751C346.691 330.114 346.932 331.112 347.42 331.744C347.907 332.378 348.579 332.694 349.436 332.694ZM347.712 336.346C346.504 336.346 345.448 336.048 344.542 335.455C343.636 334.86 342.935 333.999 342.438 332.87C341.942 331.74 341.692 330.386 341.692 328.81C341.692 327.172 341.952 325.79 342.468 324.66C342.984 323.531 343.704 322.663 344.63 322.059C345.554 321.456 346.622 321.154 347.83 321.154C349.152 321.154 350.22 321.558 351.028 322.366C351.835 323.175 352.358 324.203 352.592 325.45L352.124 326.062V315.252H357.091V336.054H352.65L352.328 331.087L352.914 331.526C352.796 332.499 352.499 333.347 352.022 334.067C351.544 334.788 350.94 335.348 350.21 335.747C349.479 336.146 348.647 336.346 347.712 336.346Z" fill="#202020"/>
<path d="M367.784 336.346C366.167 336.346 364.769 336.043 363.592 335.44C362.413 334.836 361.503 333.97 360.86 332.839C360.216 331.71 359.895 330.347 359.895 328.75C359.895 327.152 360.216 325.788 360.86 324.659C361.503 323.53 362.404 322.663 363.561 322.059C364.721 321.455 366.051 321.152 367.549 321.152C369.089 321.152 370.399 321.451 371.48 322.044C372.561 322.639 373.384 323.458 373.948 324.499C374.513 325.54 374.796 326.732 374.796 328.078C374.796 328.428 374.785 328.778 374.767 329.13C374.747 329.48 374.717 329.771 374.679 330.006H363.109V327.347H372.488L370.123 328.254C370.123 327.084 369.911 326.19 369.493 325.564C369.075 324.942 368.427 324.63 367.549 324.63C366.927 324.63 366.397 324.776 365.959 325.068C365.52 325.36 365.188 325.819 364.965 326.442C364.74 327.066 364.628 327.863 364.628 328.836C364.628 329.791 364.755 330.566 365.009 331.159C365.261 331.754 365.621 332.182 366.089 332.444C366.556 332.708 367.121 332.839 367.784 332.839C368.524 332.839 369.113 332.694 369.552 332.402C369.989 332.11 370.317 331.699 370.529 331.175L374.504 332.49C374.232 333.327 373.759 334.034 373.087 334.607C372.415 335.182 371.616 335.615 370.692 335.907C369.767 336.199 368.796 336.346 367.784 336.346Z" fill="#202020"/>
<path d="M94.4504 332.004C95.7077 331.095 97.0971 330.337 98.4771 329.611C99.6491 328.993 102.117 327.899 102.117 327.899C100.481 329.408 98.4677 331.68 97.0997 333.788C95.7264 335.904 95.5211 337.821 93.8624 339.741C93.0917 340.632 91.2811 341.067 90.5237 339.919C89.6997 338.675 90.1224 337.312 90.7624 336.081C91.6517 334.375 92.9584 333.083 94.4504 332.004Z" fill="#D1AA09"/>
<path d="M94.4504 323.483C95.7077 324.392 97.0971 325.149 98.4771 325.876C99.6491 326.493 102.117 327.588 102.117 327.588C100.481 326.079 98.4677 323.807 97.0997 321.699C95.7264 319.583 95.5211 317.665 93.8624 315.745C93.0917 314.855 91.2811 314.42 90.5237 315.568C89.6997 316.812 90.1224 318.175 90.7624 319.405C91.6517 321.112 92.9584 322.404 94.4504 323.483Z" fill="#D1AA09"/>
<path d="M88.4295 330.776L81.8535 328.032L88.4295 325.15C88.4295 325.15 91.8095 323.827 94.0562 325.15C96.1148 326.36 96.3828 329.25 94.0562 330.776C91.8095 332.251 88.4295 330.776 88.4295 330.776Z" fill="#D1AA09"/>
<path d="M389.935 323.152C388.58 324.132 387.083 324.948 385.596 325.731C384.332 326.396 381.672 327.576 381.672 327.576C383.435 325.95 385.605 323.502 387.08 321.23C388.559 318.948 388.78 316.883 390.569 314.815C391.4 313.854 393.349 313.387 394.167 314.623C395.053 315.963 394.6 317.432 393.909 318.759C392.951 320.598 391.543 321.99 389.935 323.152Z" fill="#D1AA09"/>
<path d="M389.935 332.334C388.58 331.354 387.083 330.538 385.596 329.755C384.332 329.09 381.672 327.91 381.672 327.91C383.435 329.537 385.605 331.985 387.08 334.257C388.559 336.538 388.78 338.603 390.569 340.671C391.4 341.633 393.349 342.099 394.167 340.863C395.053 339.523 394.6 338.054 393.909 336.727C392.951 334.889 391.543 333.497 389.935 332.334Z" fill="#D1AA09"/>
<path d="M396.423 324.474L403.51 327.432L396.423 330.538C396.423 330.538 392.782 331.964 390.359 330.538C388.14 329.233 387.851 326.12 390.359 324.474C392.782 322.885 396.423 324.474 396.423 324.474Z" fill="#D1AA09"/>
<path d="M122.955 316.772V320.657H116.674V336.055H111.649V320.657H105.339V316.772H122.955Z" fill="#202020"/>
</g>
<mask id="mask1_834_2460" style="mask-type:luminance" maskUnits="userSpaceOnUse" x="9" y="0" width="515" height="329">
<path d="M9.48535 0.0332031V328.033H493.195L498.819 243.843H507.2L523.961 0.0332031H9.48535Z" fill="white"/>
</mask>
<g mask="url(#mask1_834_2460)">
<mask id="mask2_834_2460" style="mask-type:luminance" maskUnits="userSpaceOnUse" x="86" y="0" width="434" height="151">
<path d="M86.6934 0.0548096H519.4V150.299H86.6934V0.0548096Z" fill="white"/>
</mask>
<g mask="url(#mask2_834_2460)">
<g opacity="0.399994">
<path d="M477.331 150.299H92.8701C88.8287 150.299 85.8768 146.48 86.8954 142.569L122.786 4.67351C123.494 1.95351 125.95 0.0548401 128.761 0.0548401H513.222C517.263 0.0548401 520.215 3.8735 519.197 7.78416L483.306 145.68C482.598 148.4 480.142 150.299 477.331 150.299Z" fill="#D1AA09"/>
<path d="M279.377 32.6426H145.6C143.894 32.6426 142.512 31.2599 142.512 29.5559C142.512 27.8506 143.894 26.4679 145.6 26.4679H279.377C281.081 26.4679 282.464 27.8506 282.464 29.5559C282.464 31.2599 281.081 32.6426 279.377 32.6426Z" fill="#867100"/>
<path d="M269.087 94.3848H135.307C133.603 94.3848 132.22 93.0021 132.22 91.2981C132.22 89.5928 133.603 88.2101 135.307 88.2101H269.087C270.791 88.2101 272.174 89.5928 272.174 91.2981C272.174 93.0021 270.791 94.3848 269.087 94.3848Z" fill="#867100"/>
<path d="M325.343 71.0586H191.563C189.859 71.0586 188.476 69.6759 188.476 67.9719C188.476 66.2666 189.859 64.8839 191.563 64.8839H325.343C327.047 64.8839 328.429 66.2666 328.429 67.9719C328.429 69.6759 327.047 71.0586 325.343 71.0586Z" fill="#867100"/>
<path d="M182.302 53.2227H142.169C140.465 53.2227 139.082 51.84 139.082 50.136C139.082 48.4307 140.465 47.048 142.169 47.048H182.302C184.006 47.048 185.389 48.4307 185.389 50.136C185.389 51.84 184.006 53.2227 182.302 53.2227Z" fill="#867100"/>
<path d="M176.814 71.0586H136.679C134.975 71.0586 133.593 69.6759 133.593 67.9719C133.593 66.2666 134.975 64.8839 136.679 64.8839H176.814C178.518 64.8839 179.901 66.2666 179.901 67.9719C179.901 69.6759 178.518 71.0586 176.814 71.0586Z" fill="#867100"/>
<path d="M348.326 32.6426H300.644C298.94 32.6426 297.558 31.2599 297.558 29.5559C297.558 27.8506 298.94 26.4679 300.644 26.4679H348.326C350.03 26.4679 351.412 27.8506 351.412 29.5559C351.412 31.2599 350.03 32.6426 348.326 32.6426Z" fill="#867100"/>
<path d="M324.009 120.266H252.809C252.45 120.266 252.189 119.927 252.28 119.579L255.465 107.336C255.529 107.095 255.746 106.926 255.996 106.926H327.196C327.554 106.926 327.817 107.264 327.726 107.612L324.54 119.855C324.477 120.098 324.258 120.266 324.009 120.266Z" stroke="#84AEE5" stroke-width="2.05867" stroke-miterlimit="10"/>
<path d="M235.509 120.266H164.309C163.95 120.266 163.689 119.927 163.78 119.579L166.965 107.336C167.029 107.095 167.246 106.926 167.496 106.926H238.696C239.054 106.926 239.317 107.264 239.226 107.612L236.04 119.855C235.977 120.098 235.758 120.266 235.509 120.266Z" stroke="#84AEE5" stroke-width="2.05867" stroke-miterlimit="10"/>
<path d="M449.149 102.514C445.5 97.653 430.693 94.1184 426.602 89.257C424.513 86.773 424.513 82.1584 425.012 78.237C426.468 77.3077 427.678 76.3757 428.398 75.5104C429.628 73.7157 431.014 71.205 432.402 68.4504C432.822 68.861 433.382 69.1824 434.106 69.161C436.049 69.1024 443.45 59.029 441.542 56.6944C440.45 55.3597 438.689 56.5183 437.378 57.7543C439.337 53.2704 440.716 49.8304 440.716 49.8304H440.641C440.828 49.265 440.998 48.6957 441.142 48.1183C444.078 36.3423 436.912 26.797 425.136 26.797C413.36 26.797 401.434 36.3423 398.497 48.1183C398.354 48.6957 398.241 49.265 398.145 49.8304H398.07C398.07 49.8304 397.734 53.2704 397.456 57.7543C396.762 56.5183 395.578 55.3597 393.822 56.6944C390.749 59.029 393.128 69.1024 395.041 69.161C395.754 69.1824 396.474 68.861 397.098 68.4504C397.114 71.205 397.249 73.7157 397.582 75.5104C397.936 76.569 398.969 77.7264 400.309 78.8557C398.844 82.6357 396.613 86.9037 393.458 89.257C386.944 94.1184 370.374 97.653 364.301 102.514C358.838 106.888 353.964 119.657 353.04 122.18H450.604C450.937 119.657 452.432 106.888 449.149 102.514Z" fill="#867100"/>
</g>
</g>
<path d="M61.8715 110.852C59.5301 110.852 57.4821 112.434 56.8928 114.7L21.0021 252.596C20.5981 254.149 20.9288 255.768 21.9101 257.038C22.8915 258.309 24.3755 259.037 25.9808 259.037H410.442C412.783 259.037 414.831 257.456 415.421 255.189L451.311 117.293C451.715 115.74 451.385 114.121 450.403 112.85C449.422 111.58 447.938 110.852 446.333 110.852H61.8715ZM410.442 261.096H25.9808C23.7328 261.096 21.6568 260.074 20.2821 258.297C18.9075 256.518 18.4435 254.253 19.0101 252.077L54.9008 114.182C55.7261 111.009 58.5915 108.793 61.8715 108.793H446.333C448.579 108.793 450.657 109.814 452.031 111.592C453.406 113.37 453.87 115.636 453.303 117.812L417.413 255.706C416.587 258.88 413.721 261.096 410.442 261.096Z" fill="#867100"/>
<path d="M403.238 249.775H18.7768C14.7355 249.775 11.7835 245.957 12.8022 242.046L48.6928 104.15C49.4008 101.43 51.8568 99.5314 54.6675 99.5314H439.129C443.17 99.5314 446.122 103.35 445.105 107.261L409.214 245.157C408.506 247.877 406.049 249.775 403.238 249.775Z" fill="#D1AA09"/>
<path d="M331.86 250.805H139.424V248.746H331.86V250.805Z" fill="#867100"/>
<path d="M248.505 100.562H85.9131V98.5038H248.505V100.562Z" fill="#867100"/>
<path d="M311.159 128.344C307.629 128.344 304.04 131.227 303.157 134.768L281.349 222.239C280.936 223.889 281.189 225.412 282.06 226.527C282.884 227.584 284.199 228.164 285.757 228.164H372.199C375.727 228.164 379.319 225.283 380.2 221.743L402.009 134.271C402.421 132.619 402.168 131.097 401.299 129.983C400.473 128.925 399.16 128.344 397.6 128.344H311.159ZM372.199 230.223H285.757C283.551 230.223 281.66 229.36 280.437 227.793C279.168 226.169 278.784 224.02 279.351 221.743L301.159 134.271C302.259 129.868 306.744 126.285 311.159 126.285H397.6C399.807 126.285 401.697 127.149 402.92 128.715C404.189 130.339 404.575 132.489 404.007 134.768L382.199 222.239C381.1 226.643 376.615 230.223 372.199 230.223Z" fill="#867100"/>
<path d="M205.285 135.549H71.5046C69.8006 135.549 68.418 134.166 68.418 132.462C68.418 130.757 69.8006 129.374 71.5046 129.374H205.285C206.989 129.374 208.371 130.757 208.371 132.462C208.371 134.166 206.989 135.549 205.285 135.549Z" fill="#867100"/>
<path d="M194.995 197.293H61.2146C59.5106 197.293 58.1279 195.91 58.1279 194.206C58.1279 192.501 59.5106 191.118 61.2146 191.118H194.995C196.699 191.118 198.081 192.501 198.081 194.206C198.081 195.91 196.699 197.293 194.995 197.293Z" fill="#867100"/>
<path d="M251.25 173.967H117.47C115.766 173.967 114.384 172.584 114.384 170.88C114.384 169.175 115.766 167.792 117.47 167.792H251.25C252.954 167.792 254.337 169.175 254.337 170.88C254.337 172.584 252.954 173.967 251.25 173.967Z" fill="#867100"/>
<path d="M108.208 156.129H68.0749C66.3709 156.129 64.9883 154.746 64.9883 153.042C64.9883 151.337 66.3709 149.954 68.0749 149.954H108.208C109.912 149.954 111.295 151.337 111.295 153.042C111.295 154.746 109.912 156.129 108.208 156.129Z" fill="#867100"/>
<path d="M102.72 173.967H62.5867C60.8827 173.967 59.5 172.584 59.5 170.88C59.5 169.175 60.8827 167.792 62.5867 167.792H102.72C104.424 167.792 105.807 169.175 105.807 170.88C105.807 172.584 104.424 173.967 102.72 173.967Z" fill="#867100"/>
<path d="M274.232 135.549H226.553C224.848 135.549 223.465 134.166 223.465 132.462C223.465 130.757 224.848 129.374 226.553 129.374H274.232C275.936 129.374 277.318 130.757 277.318 132.462C277.318 134.166 275.936 135.549 274.232 135.549Z" fill="#867100"/>
<path d="M179.339 222.143H249.544L252.479 210.861H182.275L179.339 222.143ZM249.915 224.201H178.716C178.222 224.201 177.767 223.977 177.467 223.587C177.166 223.196 177.066 222.701 177.19 222.225L180.376 209.984C180.559 209.288 181.186 208.803 181.903 208.803H253.102C253.595 208.803 254.05 209.027 254.351 209.417C254.652 209.807 254.752 210.303 254.628 210.779L251.442 223.021C251.26 223.716 250.632 224.201 249.915 224.201Z" fill="#867100"/>
<path d="M90.839 222.143H161.044L163.979 210.861H93.775L90.839 222.143ZM161.415 224.201H90.2163C89.723 224.201 89.267 223.977 88.967 223.587C88.6657 223.196 88.5657 222.701 88.6897 222.225L91.8763 209.984C92.059 209.288 92.6857 208.803 93.403 208.803H164.602C165.095 208.803 165.551 209.027 165.851 209.417C166.152 209.807 166.252 210.303 166.128 210.779L162.942 223.021C162.76 223.716 162.132 224.201 161.415 224.201Z" fill="#867100"/>
<path d="M377.103 226.435C377.022 227.192 377.185 225.678 377.103 226.435C376.477 227.459 374.143 229.728 372.979 229.602C346.741 226.754 320.434 231.618 294.194 228.788C292.183 228.571 289.819 229.016 287.813 228.783C286.35 228.612 286.497 223.588 286.765 222.143C287.057 220.566 288.082 215.028 288.665 213.547C291.789 205.594 297.695 201.107 306.11 199.884C310.509 199.246 314.917 198.672 319.318 198.054C319.638 198.008 320.121 197.906 320.218 197.691C320.645 196.747 320.958 195.754 321.281 194.862C318.437 193.8 315.651 192.892 312.981 191.724C310.874 190.803 308.874 189.62 306.893 188.442C305.714 187.74 305.603 186.284 306.611 185.468C309.505 183.124 311.242 180 312.631 176.651C314.702 171.656 315.669 166.396 316.273 161.055C316.738 156.947 317.787 153.003 319.725 149.335C323.291 142.584 328.695 138.11 336.167 136.283C337.49 135.96 338.869 135.859 340.221 135.656C341.443 135.788 342.667 135.92 343.89 136.052C344.046 136.122 344.195 136.226 344.358 136.255C346.938 136.726 349.03 138.011 350.765 139.964C351.09 140.33 351.659 140.615 352.15 140.676C355.405 141.083 357.753 142.728 359.225 145.648C360.818 148.807 361.386 152.224 361.361 155.687C361.331 159.895 361.03 164.104 360.763 168.308C360.473 172.879 360.417 177.436 361.242 181.96C361.854 185.322 362.789 188.578 364.907 191.354C366.058 192.86 365.763 194.119 364.005 194.779C360.675 196.027 357.225 196.784 353.699 197.212C352.115 197.406 350.526 197.556 348.885 197.732C348.999 198.614 349.137 199.418 349.198 200.228C349.247 200.858 349.523 201.182 350.126 201.398C354.309 202.904 358.485 204.427 362.649 205.98C370.409 208.875 375.171 214.352 376.722 222.523C376.966 223.804 376.982 225.13 377.103 226.435Z" fill="#867100"/>
<path d="M326.714 85.125H243.359V83.0663H326.714V85.125Z" fill="#867100"/>
<path d="M443.054 180.142C438.7 197.601 421.019 211.754 403.56 211.754C386.102 211.754 375.478 197.601 379.83 180.142C384.183 162.683 401.864 148.53 419.323 148.53C436.782 148.53 447.407 162.683 443.054 180.142Z" fill="#867100"/>
<path d="M458.169 214.102C456.977 218.881 452.138 222.754 447.359 222.754C442.582 222.754 439.674 218.881 440.866 214.102C442.057 209.323 446.895 205.45 451.674 205.45C456.453 205.45 459.359 209.323 458.169 214.102Z" fill="#867100"/>
<path d="M403.291 196.207C402.296 196.207 401.396 195.827 400.827 195.068L392.657 184.186C391.517 182.668 392.131 180.207 394.028 178.69C395.924 177.171 398.384 177.171 399.524 178.69L405.631 186.823L427.447 169.362C429.344 167.843 431.803 167.843 432.943 169.362C434.083 170.879 433.469 173.34 431.572 174.858L406.323 195.068C405.375 195.827 404.285 196.207 403.291 196.207Z" fill="white"/>
</g>
</svg>
