<svg width="22" height="22" viewBox="0 0 22 22" fill="none" xmlns="http://www.w3.org/2000/svg">
<g clip-path="url(#clip0_1002_585)">
<path d="M0.858398 11.0004C0.858398 5.4124 5.4124 0.858398 11.0004 0.858398C16.5884 0.858398 21.1424 5.4124 21.1424 11.0004C21.1424 16.5884 16.5884 21.1424 11.0004 21.1424C5.4124 21.1424 0.858398 16.5884 0.858398 11.0004ZM20.2184 11.0004C20.2184 5.9184 16.0824 1.7824 11.0004 1.7824C5.9184 1.7824 1.7824 5.9184 1.7824 11.0004C1.7824 16.0824 5.9184 20.2184 11.0004 20.2184C16.0824 20.2184 20.2184 16.0824 20.2184 11.0004Z" fill="#474D59"/>
<path d="M0.858398 11.0004C0.858398 5.4124 5.4124 0.858398 11.0004 0.858398C16.5884 0.858398 21.1424 5.4124 21.1424 11.0004C21.1424 16.5884 16.5884 21.1424 11.0004 21.1424C5.4124 21.1424 0.858398 16.5884 0.858398 11.0004ZM20.2184 11.0004C20.2184 5.9184 16.0824 1.7824 11.0004 1.7824C5.9184 1.7824 1.7824 5.9184 1.7824 11.0004C1.7824 16.0824 5.9184 20.2184 11.0004 20.2184C16.0824 20.2184 20.2184 16.0824 20.2184 11.0004Z" fill="#474D59"/>
<path d="M4.77441 11.0444C4.77441 10.8904 4.79641 10.7364 4.81841 10.6044C4.88441 10.2524 5.06041 9.92241 5.32441 9.65841C5.41241 9.57041 5.50041 9.50441 5.61041 9.41641L8.91041 6.11641C9.26241 5.76441 9.72441 5.56641 10.2304 5.56641C10.7364 5.56641 11.1984 5.76441 11.5504 6.11641C12.2544 6.82041 12.2544 8.05241 11.5504 8.75641L11.1544 9.15241H15.3564C16.3904 9.15241 17.2044 9.98841 17.2044 11.0004C17.2044 12.0124 16.3684 12.8484 15.3564 12.8484H11.1764L11.5724 13.2444C12.2764 13.9484 12.2764 15.1804 11.5724 15.8624C10.8464 16.5884 9.65841 16.5884 8.93241 15.8624L5.69841 12.6504C5.54441 12.5624 5.43441 12.4744 5.32441 12.3644C4.97241 12.0124 4.77441 11.5284 4.77441 11.0444Z" fill="#AF310B"/>
</g>
<defs>
<clipPath id="clip0_1002_585">
<rect width="22" height="22" fill="white"/>
</clipPath>
</defs>
</svg>
