<svg width="53" height="53" viewBox="0 0 53 53" fill="none" xmlns="http://www.w3.org/2000/svg">
<circle cx="26.5" cy="26.5" r="26.5" fill="url(#paint0_linear_841_2268)"/>
<path d="M23.0365 16C19.723 16 17 18.7194 17 22.0365V30.4935C17 33.807 19.7194 36.53 23.0365 36.53H31.4935C34.807 36.53 37.53 33.8107 37.53 30.4935V22.0365C37.53 18.723 34.8107 16 31.4935 16H23.0365ZM23.0365 17.8664H31.4935C33.8009 17.8664 35.6636 19.7291 35.6636 22.0365V30.4935C35.6636 32.8009 33.8009 34.6636 31.4935 34.6636H23.0365C20.7291 34.6636 18.8664 32.8009 18.8664 30.4935V22.0365C18.8664 19.7291 20.7291 17.8664 23.0365 17.8664ZM32.7766 19.9077C32.3064 19.9077 31.9309 20.2832 31.9309 20.7534C31.9309 21.2236 32.3064 21.5991 32.7766 21.5991C33.2468 21.5991 33.6223 21.2236 33.6223 20.7534C33.6223 20.2832 33.2468 19.9077 32.7766 19.9077ZM27.265 20.6659C24.1848 20.6659 21.6659 23.1848 21.6659 26.265C21.6659 29.3452 24.1848 31.8641 27.265 31.8641C30.3452 31.8641 32.8641 29.3452 32.8641 26.265C32.8641 23.1848 30.3452 20.6659 27.265 20.6659ZM27.265 22.5323C29.3391 22.5323 30.9977 24.1909 30.9977 26.265C30.9977 28.3391 29.3391 29.9977 27.265 29.9977C25.1909 29.9977 23.5323 28.3391 23.5323 26.265C23.5323 24.1909 25.1909 22.5323 27.265 22.5323Z" fill="white"/>
<defs>
<linearGradient id="paint0_linear_841_2268" x1="26.5" y1="0" x2="26.5" y2="53" gradientUnits="userSpaceOnUse">
<stop offset="0.369792" stop-color="#9C7A07"/>
<stop offset="1" stop-color="#745C0B"/>
</linearGradient>
</defs>
</svg>
