<svg width="23" height="23" viewBox="0 0 23 23" fill="none" xmlns="http://www.w3.org/2000/svg">
<g clip-path="url(#clip0_1106_2678)">
<path d="M7.26131 0C3.66305 0 0.706055 2.95256 0.706055 6.55421V15.7364C0.706055 19.3341 3.65909 22.2907 7.26131 22.2907H16.445C20.0433 22.2907 23.0003 19.3381 23.0003 15.7364V6.55421C23.0003 2.95652 20.0472 0 16.445 0H7.26131ZM7.26131 2.02642H16.445C18.9507 2.02642 20.9735 4.04889 20.9735 6.55421V15.7364C20.9735 18.2418 18.9507 20.2642 16.445 20.2642H7.26131C4.75559 20.2642 2.7328 18.2418 2.7328 15.7364V6.55421C2.7328 4.04889 4.75559 2.02642 7.26131 2.02642ZM17.8384 4.24282C17.3278 4.24282 16.92 4.65048 16.92 5.16105C16.92 5.67161 17.3278 6.07927 17.8384 6.07927C18.349 6.07927 18.7568 5.67161 18.7568 5.16105C18.7568 4.65048 18.349 4.24282 17.8384 4.24282ZM11.8532 5.06606C8.50824 5.06606 5.77292 7.80094 5.77292 11.1453C5.77292 14.4897 8.50824 17.2246 11.8532 17.2246C15.1981 17.2246 17.9334 14.4897 17.9334 11.1453C17.9334 7.80094 15.1981 5.06606 11.8532 5.06606ZM11.8532 7.09248C14.1055 7.09248 15.9067 8.89331 15.9067 11.1453C15.9067 13.3974 14.1055 15.1982 11.8532 15.1982C9.60078 15.1982 7.79967 13.3974 7.79967 11.1453C7.79967 8.89331 9.60078 7.09248 11.8532 7.09248Z" fill="#656565"/>
</g>
<defs>
<clipPath id="clip0_1106_2678">
<rect width="23" height="23" fill="white"/>
</clipPath>
</defs>
</svg>
