<svg width="1170" height="400" viewBox="0 0 1170 400" fill="none" xmlns="http://www.w3.org/2000/svg">
<g clip-path="url(#clip0_1140_2682)">
<path d="M0 -1H1099L997 400H0V-1Z" fill="white"/>
<path fill-rule="evenodd" clip-rule="evenodd" d="M536.629 110.346H497.403C497.18 110.346 497 110.166 497 109.943V104.402C497 104.179 497.18 103.999 497.403 103.999H536.629C536.852 103.999 537.032 104.179 537.032 104.402V109.943C537.032 110.166 536.852 110.346 536.629 110.346Z" fill="#D1AA09"/>
<path d="M1040.11 227.023H995.818L952.953 402.138L997.61 400.642L1040.11 227.023Z" fill="#531E00"/>
<path d="M1059.36 303.986H1021.27L1094.52 1.28906H1136.04L1059.36 303.986Z" fill="#B7AF8D"/>
<path d="M1057.52 354.184H1124.07L1169.64 159.34H1104.97L1057.52 354.184Z" fill="#867100"/>
<path fill-rule="evenodd" clip-rule="evenodd" d="M180.712 222.624C182.04 221.13 183.672 219.549 185.149 218.012C203.487 199.017 209.536 169.54 201.72 144.604C200.345 140.222 198.817 136.654 196.925 132.982L192.257 124.937C186.147 117.07 182.203 111.969 172.061 105.138C155.352 93.8842 134.933 90.2495 115.461 94.3628C89.2721 99.8975 68.0841 118.422 60.0694 144.557C48.9161 180.948 65.2721 218.972 100.209 234.829C109.485 239.04 120.493 241.686 130.795 241.602C141.984 241.506 146.633 239.809 156.513 237.078C157.915 238.35 161.452 243.545 162.336 245.277C157.531 249.422 156.304 249.017 159.773 255.41C161.597 258.782 163.768 262.042 165.797 265.365L190.057 305.073C191.604 307.04 193.037 307.838 195.671 306.713L220.423 291.673C223.012 290.061 229.076 287.812 225.781 282.625C221.545 275.953 217.621 269.025 213.723 262.73C209.607 256.093 205.591 249.59 201.608 242.857C199.579 239.422 197.585 236.358 195.551 232.922C191.284 225.733 190.112 230.178 185.337 230.914C184.428 229.193 180.983 223.974 180.72 222.613L180.712 222.624ZM140.693 101.321C178.633 106.449 201.665 143.049 196.509 176.764C190.631 215.188 155.381 237.884 121.044 232.984C110.876 231.536 101.268 227.378 93.6081 222.209C89.9161 219.71 86.9307 217.118 83.9321 214.192C80.2601 210.606 79.1974 208.965 76.4214 205.148C44.2587 161.028 79.8187 93.0935 140.688 101.32L140.693 101.321ZM165.444 233.536C166.375 232.637 172.392 228.886 173.64 228.441C174.291 229.028 177.307 234.281 177.731 235.449L169.308 240.141L165.44 233.534L165.444 233.536ZM189.413 239.418C190.771 240.488 216.104 282.946 216.488 283.949C212.523 286.53 208.717 288.312 205.869 290.18C202.311 292.506 198.757 294.585 195.205 296.392C193.985 295.257 183.969 277.849 181.717 274.42L174.989 263.38C172.723 259.773 170.345 255.977 168.403 252.304L189.413 239.418Z" fill="#D1AA09"/>
<path d="M294.973 143.199H278.557C278.257 141.075 277.645 139.189 276.721 137.54C275.796 135.865 274.609 134.441 273.16 133.267C271.711 132.092 270.037 131.193 268.138 130.568C266.264 129.944 264.228 129.631 262.029 129.631C258.056 129.631 254.595 130.618 251.647 132.592C248.699 134.541 246.412 137.39 244.788 141.138C243.164 144.86 242.352 149.383 242.352 154.705C242.352 160.177 243.164 164.775 244.788 168.497C246.437 172.22 248.736 175.031 251.685 176.93C254.633 178.829 258.044 179.779 261.916 179.779C264.09 179.779 266.102 179.491 267.951 178.917C269.825 178.342 271.486 177.505 272.935 176.406C274.385 175.281 275.584 173.92 276.533 172.32C277.508 170.721 278.183 168.897 278.557 166.848L294.973 166.923C294.549 170.446 293.487 173.845 291.788 177.118C290.113 180.366 287.852 183.277 285.004 185.85C282.18 188.399 278.807 190.423 274.884 191.922C270.986 193.396 266.576 194.133 261.654 194.133C254.808 194.133 248.686 192.584 243.289 189.486C237.917 186.388 233.669 181.903 230.546 176.031C227.448 170.159 225.899 163.05 225.899 154.705C225.899 146.335 227.473 139.214 230.621 133.342C233.769 127.47 238.042 122.997 243.439 119.924C248.836 116.826 254.908 115.277 261.654 115.277C266.102 115.277 270.224 115.901 274.022 117.151C277.845 118.4 281.231 120.224 284.179 122.623C287.128 124.996 289.526 127.907 291.375 131.355C293.249 134.804 294.449 138.751 294.973 143.199ZM377.147 154.705C377.147 163.075 375.56 170.197 372.387 176.068C369.239 181.94 364.941 186.425 359.494 189.523C354.072 192.597 347.975 194.133 341.204 194.133C334.383 194.133 328.261 192.584 322.839 189.486C317.417 186.388 313.132 181.903 309.984 176.031C306.836 170.159 305.261 163.05 305.261 154.705C305.261 146.335 306.836 139.214 309.984 133.342C313.132 127.47 317.417 122.997 322.839 119.924C328.261 116.826 334.383 115.277 341.204 115.277C347.975 115.277 354.072 116.826 359.494 119.924C364.941 122.997 369.239 127.47 372.387 133.342C375.56 139.214 377.147 146.335 377.147 154.705ZM360.693 154.705C360.693 149.283 359.881 144.711 358.257 140.988C356.658 137.265 354.397 134.441 351.473 132.517C348.55 130.593 345.127 129.631 341.204 129.631C337.281 129.631 333.858 130.593 330.935 132.517C328.011 134.441 325.738 137.265 324.114 140.988C322.514 144.711 321.715 149.283 321.715 154.705C321.715 160.127 322.514 164.7 324.114 168.423C325.738 172.145 328.011 174.969 330.935 176.893C333.858 178.817 337.281 179.779 341.204 179.779C345.127 179.779 348.55 178.817 351.473 176.893C354.397 174.969 356.658 172.145 358.257 168.423C359.881 164.7 360.693 160.127 360.693 154.705ZM453.371 116.326V193.084H439.353L405.959 144.773H405.397V193.084H389.168V116.326H403.411L436.542 164.6H437.217V116.326H453.371ZM537.315 154.705C537.315 163.075 535.728 170.197 532.555 176.068C529.407 181.94 525.109 186.425 519.662 189.523C514.24 192.597 508.144 194.133 501.372 194.133C494.551 194.133 488.429 192.584 483.007 189.486C477.585 186.388 473.3 181.903 470.152 176.031C467.004 170.159 465.43 163.05 465.43 154.705C465.43 146.335 467.004 139.214 470.152 133.342C473.3 127.47 477.585 122.997 483.007 119.924C488.429 116.826 494.551 115.277 501.372 115.277C508.144 115.277 514.24 116.826 519.662 119.924C525.109 122.997 529.407 127.47 532.555 133.342C535.728 139.214 537.315 146.335 537.315 154.705ZM520.862 154.705C520.862 149.283 520.05 144.711 518.425 140.988C516.826 137.265 514.565 134.441 511.642 132.517C508.718 130.593 505.295 129.631 501.372 129.631C497.45 129.631 494.026 130.593 491.103 132.517C488.18 134.441 485.906 137.265 484.282 140.988C482.683 144.711 481.883 149.283 481.883 154.705C481.883 160.127 482.683 164.7 484.282 168.423C485.906 172.145 488.18 174.969 491.103 176.893C494.026 178.817 497.45 179.779 501.372 179.779C505.295 179.779 508.718 178.817 511.642 176.893C514.565 174.969 516.826 172.145 518.425 168.423C520.05 164.7 520.862 160.127 520.862 154.705ZM617.062 143.199H600.646C600.346 141.075 599.734 139.189 598.809 137.54C597.885 135.865 596.698 134.441 595.249 133.267C593.8 132.092 592.126 131.193 590.227 130.568C588.353 129.944 586.316 129.631 584.118 129.631C580.145 129.631 576.684 130.618 573.736 132.592C570.787 134.541 568.501 137.39 566.877 141.138C565.253 144.86 564.441 149.383 564.441 154.705C564.441 160.177 565.253 164.775 566.877 168.497C568.526 172.22 570.825 175.031 573.773 176.93C576.722 178.829 580.132 179.779 584.005 179.779C586.179 179.779 588.19 179.491 590.039 178.917C591.913 178.342 593.575 177.505 595.024 176.406C596.473 175.281 597.673 173.92 598.622 172.32C599.597 170.721 600.271 168.897 600.646 166.848L617.062 166.923C616.637 170.446 615.575 173.845 613.876 177.118C612.202 180.366 609.941 183.277 607.092 185.85C604.269 188.399 600.896 190.423 596.973 191.922C593.075 193.396 588.665 194.133 583.743 194.133C576.896 194.133 570.775 192.584 565.378 189.486C560.006 186.388 555.758 181.903 552.635 176.031C549.537 170.159 547.987 163.05 547.987 154.705C547.987 146.335 549.561 139.214 552.71 133.342C555.858 127.47 560.131 122.997 565.528 119.924C570.925 116.826 576.996 115.277 583.743 115.277C588.19 115.277 592.313 115.901 596.111 117.151C599.934 118.4 603.319 120.224 606.268 122.623C609.216 124.996 611.615 127.907 613.464 131.355C615.338 134.804 616.537 138.751 617.062 143.199ZM628.699 193.084V116.326H680.421V129.706H644.928V147.996H677.76V161.376H644.928V179.704H680.571V193.084H628.699ZM693.323 193.084V116.326H709.552V179.704H742.459V193.084H693.323ZM753.206 193.084V116.326H804.927V129.706H769.434V147.996H802.266V161.376H769.434V179.704H805.077V193.084H753.206ZM859.469 138.402C859.17 135.378 857.883 133.029 855.609 131.355C853.335 129.681 850.249 128.844 846.352 128.844C843.703 128.844 841.467 129.219 839.643 129.969C837.819 130.693 836.42 131.705 835.445 133.004C834.496 134.304 834.021 135.778 834.021 137.427C833.971 138.801 834.258 140.001 834.883 141.025C835.532 142.05 836.42 142.937 837.544 143.686C838.668 144.411 839.968 145.048 841.442 145.598C842.916 146.122 844.49 146.572 846.164 146.947L853.06 148.596C856.409 149.346 859.482 150.345 862.28 151.594C865.079 152.844 867.502 154.38 869.551 156.204C871.6 158.028 873.187 160.177 874.311 162.651C875.461 165.124 876.048 167.96 876.073 171.159C876.048 175.856 874.848 179.929 872.475 183.377C870.126 186.8 866.728 189.461 862.28 191.36C857.858 193.234 852.523 194.171 846.277 194.171C840.08 194.171 834.683 193.221 830.085 191.322C825.513 189.423 821.94 186.613 819.366 182.89C816.818 179.142 815.481 174.507 815.356 168.985H831.06C831.235 171.558 831.972 173.707 833.271 175.431C834.596 177.13 836.357 178.417 838.556 179.292C840.78 180.141 843.291 180.566 846.089 180.566C848.838 180.566 851.224 180.166 853.248 179.367C855.297 178.567 856.883 177.455 858.008 176.031C859.132 174.607 859.694 172.97 859.694 171.121C859.694 169.397 859.182 167.948 858.158 166.773C857.158 165.599 855.684 164.6 853.735 163.775C851.811 162.951 849.45 162.201 846.651 161.526L838.293 159.427C831.822 157.853 826.712 155.392 822.964 152.044C819.216 148.696 817.355 144.186 817.38 138.514C817.355 133.867 818.592 129.806 821.09 126.333C823.614 122.86 827.075 120.149 831.472 118.2C835.87 116.251 840.867 115.277 846.464 115.277C852.161 115.277 857.133 116.251 861.381 118.2C865.653 120.149 868.977 122.86 871.35 126.333C873.724 129.806 874.948 133.829 875.023 138.402H859.469Z" fill="#867100"/>
<path d="M299.744 230.91H295.827C295.596 229.783 295.19 228.793 294.611 227.941C294.043 227.088 293.348 226.372 292.527 225.793C291.716 225.203 290.816 224.761 289.826 224.466C288.837 224.172 287.805 224.024 286.731 224.024C284.773 224.024 282.999 224.519 281.409 225.509C279.83 226.498 278.572 227.956 277.635 229.883C276.709 231.81 276.245 234.173 276.245 236.974C276.245 239.774 276.709 242.138 277.635 244.064C278.572 245.991 279.83 247.449 281.409 248.439C282.999 249.428 284.773 249.923 286.731 249.923C287.805 249.923 288.837 249.776 289.826 249.481C290.816 249.186 291.716 248.749 292.527 248.17C293.348 247.581 294.043 246.859 294.611 246.007C295.19 245.143 295.596 244.154 295.827 243.038H299.744C299.449 244.691 298.912 246.17 298.133 247.475C297.354 248.781 296.385 249.891 295.227 250.807C294.069 251.713 292.769 252.402 291.327 252.876C289.895 253.35 288.363 253.587 286.731 253.587C283.973 253.587 281.52 252.913 279.372 251.565C277.224 250.218 275.535 248.302 274.303 245.817C273.071 243.332 272.455 240.385 272.455 236.974C272.455 233.563 273.071 230.615 274.303 228.13C275.535 225.646 277.224 223.729 279.372 222.382C281.52 221.034 283.973 220.361 286.731 220.361C288.363 220.361 289.895 220.597 291.327 221.071C292.769 221.545 294.069 222.24 295.227 223.156C296.385 224.061 297.354 225.167 298.133 226.472C298.912 227.767 299.449 229.246 299.744 230.91ZM307.399 253.145H303.293L315.168 220.803H319.211L331.087 253.145H326.981L317.316 225.919H317.063L307.399 253.145ZM308.915 240.511H325.465V243.985H308.915V240.511ZM361.77 220.803V253.145H357.98L340.357 227.751H340.041V253.145H336.124V220.803H339.914L357.601 246.259H357.917V220.803H361.77ZM379.588 253.145H369.607V220.803H380.03C383.167 220.803 385.852 221.45 388.084 222.745C390.316 224.03 392.026 225.877 393.216 228.288C394.406 230.688 395 233.563 395 236.91C395 240.279 394.4 243.18 393.2 245.612C392 248.033 390.252 249.897 387.957 251.202C385.662 252.497 382.872 253.145 379.588 253.145ZM373.523 249.67H379.335C382.009 249.67 384.225 249.154 385.983 248.123C387.741 247.091 389.052 245.622 389.915 243.717C390.779 241.811 391.21 239.542 391.21 236.91C391.21 234.3 390.784 232.052 389.931 230.167C389.078 228.272 387.805 226.819 386.11 225.809C384.415 224.788 382.304 224.277 379.777 224.277H373.523V249.67ZM405.486 220.803V253.145H401.57V220.803H405.486ZM423.319 253.145H413.339V220.803H423.761C426.899 220.803 429.583 221.45 431.815 222.745C434.047 224.03 435.758 225.877 436.948 228.288C438.137 230.688 438.732 233.563 438.732 236.91C438.732 240.279 438.132 243.18 436.932 245.612C435.732 248.033 433.984 249.897 431.689 251.202C429.394 252.497 426.604 253.145 423.319 253.145ZM417.255 249.67H423.067C425.741 249.67 427.957 249.154 429.715 248.123C431.473 247.091 432.784 245.622 433.647 243.717C434.51 241.811 434.942 239.542 434.942 236.91C434.942 234.3 434.516 232.052 433.663 230.167C432.81 228.272 431.536 226.819 429.841 225.809C428.146 224.788 426.035 224.277 423.509 224.277H417.255V249.67ZM445.108 253.145H441.002L452.878 220.803H456.921L468.796 253.145H464.69L455.025 225.919H454.773L445.108 253.145ZM446.624 240.511H463.174V243.985H446.624V240.511ZM468.287 224.277V220.803H492.543V224.277H482.373V253.145H478.457V224.277H468.287ZM496.136 253.145H492.03L503.905 220.803H507.948L519.824 253.145H515.718L506.053 225.919H505.8L496.136 253.145ZM497.652 240.511H514.202V243.985H497.652V240.511ZM542.548 228.888C542.359 227.288 541.59 226.046 540.243 225.161C538.895 224.277 537.242 223.835 535.284 223.835C533.852 223.835 532.599 224.066 531.525 224.53C530.462 224.993 529.63 225.63 529.03 226.44C528.441 227.251 528.146 228.172 528.146 229.204C528.146 230.067 528.351 230.81 528.762 231.431C529.183 232.041 529.72 232.552 530.373 232.962C531.025 233.363 531.71 233.694 532.426 233.957C533.141 234.21 533.799 234.415 534.4 234.573L537.684 235.458C538.526 235.679 539.463 235.984 540.495 236.374C541.537 236.763 542.532 237.295 543.48 237.969C544.438 238.632 545.228 239.485 545.849 240.527C546.47 241.569 546.78 242.848 546.78 244.364C546.78 246.112 546.322 247.691 545.406 249.102C544.501 250.513 543.175 251.634 541.427 252.465C539.69 253.297 537.579 253.713 535.094 253.713C532.778 253.713 530.773 253.339 529.078 252.592C527.393 251.844 526.067 250.802 525.098 249.465C524.14 248.128 523.598 246.575 523.472 244.806H527.514C527.62 246.028 528.03 247.038 528.746 247.838C529.472 248.628 530.388 249.218 531.494 249.607C532.61 249.986 533.81 250.176 535.094 250.176C536.589 250.176 537.932 249.934 539.121 249.449C540.311 248.954 541.253 248.27 541.948 247.396C542.643 246.512 542.99 245.48 542.99 244.301C542.99 243.227 542.69 242.353 542.09 241.68C541.49 241.006 540.7 240.458 539.721 240.037C538.742 239.616 537.684 239.248 536.547 238.932L532.568 237.795C530.041 237.068 528.041 236.031 526.567 234.684C525.093 233.336 524.356 231.573 524.356 229.394C524.356 227.583 524.845 226.004 525.825 224.656C526.814 223.298 528.141 222.245 529.804 221.498C531.478 220.74 533.347 220.361 535.41 220.361C537.495 220.361 539.348 220.734 540.969 221.482C542.59 222.219 543.875 223.229 544.822 224.514C545.78 225.798 546.286 227.256 546.338 228.888H542.548ZM562.947 220.803H567.432L576.402 235.9H576.781L585.751 220.803H590.236L578.55 239.816V253.145H574.633V239.816L562.947 220.803ZM633.833 230.91H629.917C629.685 229.783 629.28 228.793 628.701 227.941C628.132 227.088 627.438 226.372 626.616 225.793C625.806 225.203 624.906 224.761 623.916 224.466C622.926 224.172 621.895 224.024 620.821 224.024C618.863 224.024 617.089 224.519 615.499 225.509C613.92 226.498 612.662 227.956 611.725 229.883C610.798 231.81 610.335 234.173 610.335 236.974C610.335 239.774 610.798 242.138 611.725 244.064C612.662 245.991 613.92 247.449 615.499 248.439C617.089 249.428 618.863 249.923 620.821 249.923C621.895 249.923 622.926 249.776 623.916 249.481C624.906 249.186 625.806 248.749 626.616 248.17C627.438 247.581 628.132 246.859 628.701 246.007C629.28 245.143 629.685 244.154 629.917 243.038H633.833C633.538 244.691 633.002 246.17 632.222 247.475C631.443 248.781 630.475 249.891 629.317 250.807C628.159 251.713 626.858 252.402 625.416 252.876C623.984 253.35 622.453 253.587 620.821 253.587C618.062 253.587 615.609 252.913 613.462 251.565C611.314 250.218 609.624 248.302 608.392 245.817C607.161 243.332 606.545 240.385 606.545 236.974C606.545 233.563 607.161 230.615 608.392 228.13C609.624 225.646 611.314 223.729 613.462 222.382C615.609 221.034 618.062 220.361 620.821 220.361C622.453 220.361 623.984 220.597 625.416 221.071C626.858 221.545 628.159 222.24 629.317 223.156C630.475 224.061 631.443 225.167 632.222 226.472C633.002 227.767 633.538 229.246 633.833 230.91ZM641.488 253.145H637.382L649.258 220.803H653.301L665.176 253.145H661.07L651.406 225.919H651.153L641.488 253.145ZM643.004 240.511H659.554V243.985H643.004V240.511ZM695.86 220.803V253.145H692.07L674.446 227.751H674.13V253.145H670.214V220.803H674.004L691.691 246.259H692.007V220.803H695.86ZM713.677 253.145H703.697V220.803H714.119C717.257 220.803 719.941 221.45 722.173 222.745C724.405 224.03 726.116 225.877 727.305 228.288C728.495 230.688 729.09 233.563 729.09 236.91C729.09 240.279 728.49 243.18 727.29 245.612C726.09 248.033 724.342 249.897 722.047 251.202C719.752 252.497 716.962 253.145 713.677 253.145ZM707.613 249.67H713.424C716.099 249.67 718.315 249.154 720.073 248.123C721.831 247.091 723.142 245.622 724.005 243.717C724.868 241.811 725.3 239.542 725.3 236.91C725.3 234.3 724.874 232.052 724.021 230.167C723.168 228.272 721.894 226.819 720.199 225.809C718.504 224.788 716.393 224.277 713.867 224.277H707.613V249.67ZM739.576 220.803V253.145H735.659V220.803H739.576ZM757.409 253.145H747.428V220.803H757.851C760.988 220.803 763.673 221.45 765.905 222.745C768.137 224.03 769.848 225.877 771.037 228.288C772.227 230.688 772.822 233.563 772.822 236.91C772.822 240.279 772.222 243.18 771.021 245.612C769.821 248.033 768.074 249.897 765.779 251.202C763.483 252.497 760.694 253.145 757.409 253.145ZM751.345 249.67H757.156C759.83 249.67 762.046 249.154 763.805 248.123C765.563 247.091 766.873 245.622 767.737 243.717C768.6 241.811 769.032 239.542 769.032 236.91C769.032 234.3 768.605 232.052 767.753 230.167C766.9 228.272 765.626 226.819 763.931 225.809C762.236 224.788 760.125 224.277 757.598 224.277H751.345V249.67ZM779.198 253.145H775.092L786.967 220.803H791.01L802.886 253.145H798.78L789.115 225.919H788.862L779.198 253.145ZM780.714 240.511H797.264V243.985H780.714V240.511ZM802.376 224.277V220.803H826.633V224.277H816.463V253.145H812.546V224.277H802.376ZM858.619 236.974C858.619 240.385 858.003 243.332 856.771 245.817C855.54 248.302 853.85 250.218 851.702 251.565C849.555 252.913 847.102 253.587 844.343 253.587C841.585 253.587 839.132 252.913 836.984 251.565C834.837 250.218 833.147 248.302 831.915 245.817C830.683 243.332 830.067 240.385 830.067 236.974C830.067 233.563 830.683 230.615 831.915 228.13C833.147 225.646 834.837 223.729 836.984 222.382C839.132 221.034 841.585 220.361 844.343 220.361C847.102 220.361 849.555 221.034 851.702 222.382C853.85 223.729 855.54 225.646 856.771 228.13C858.003 230.615 858.619 233.563 858.619 236.974ZM854.829 236.974C854.829 234.173 854.361 231.81 853.424 229.883C852.497 227.956 851.239 226.498 849.649 225.509C848.07 224.519 846.301 224.024 844.343 224.024C842.385 224.024 840.611 224.519 839.021 225.509C837.442 226.498 836.184 227.956 835.247 229.883C834.321 231.81 833.857 234.173 833.857 236.974C833.857 239.774 834.321 242.138 835.247 244.064C836.184 245.991 837.442 247.449 839.021 248.439C840.611 249.428 842.385 249.923 844.343 249.923C846.301 249.923 848.07 249.428 849.649 248.439C851.239 247.449 852.497 245.991 853.424 244.064C854.361 242.138 854.829 239.774 854.829 236.974ZM882.891 228.888C882.702 227.288 881.933 226.046 880.586 225.161C879.238 224.277 877.585 223.835 875.627 223.835C874.195 223.835 872.942 224.066 871.869 224.53C870.805 224.993 869.974 225.63 869.373 226.44C868.784 227.251 868.489 228.172 868.489 229.204C868.489 230.067 868.694 230.81 869.105 231.431C869.526 232.041 870.063 232.552 870.716 232.962C871.368 233.363 872.053 233.694 872.769 233.957C873.485 234.21 874.143 234.415 874.743 234.573L878.027 235.458C878.87 235.679 879.807 235.984 880.838 236.374C881.881 236.763 882.875 237.295 883.823 237.969C884.781 238.632 885.571 239.485 886.192 240.527C886.813 241.569 887.124 242.848 887.124 244.364C887.124 246.112 886.666 247.691 885.75 249.102C884.844 250.513 883.518 251.634 881.77 252.465C880.033 253.297 877.922 253.713 875.438 253.713C873.121 253.713 871.116 253.339 869.421 252.592C867.736 251.844 866.41 250.802 865.441 249.465C864.483 248.128 863.941 246.575 863.815 244.806H867.857C867.963 246.028 868.373 247.038 869.089 247.838C869.816 248.628 870.732 249.218 871.837 249.607C872.953 249.986 874.153 250.176 875.438 250.176C876.932 250.176 878.275 249.934 879.464 249.449C880.654 248.954 881.596 248.27 882.291 247.396C882.986 246.512 883.333 245.48 883.333 244.301C883.333 243.227 883.033 242.353 882.433 241.68C881.833 241.006 881.044 240.458 880.065 240.037C879.085 239.616 878.027 239.248 876.89 238.932L872.911 237.795C870.384 237.068 868.384 236.031 866.91 234.684C865.436 233.336 864.699 231.573 864.699 229.394C864.699 227.583 865.189 226.004 866.168 224.656C867.157 223.298 868.484 222.245 870.147 221.498C871.821 220.74 873.69 220.361 875.753 220.361C877.838 220.361 879.691 220.734 881.312 221.482C882.933 222.219 884.218 223.229 885.165 224.514C886.123 225.798 886.629 227.256 886.681 228.888H882.891Z" fill="black"/>
</g>
<defs>
<clipPath id="clip0_1140_2682">
<rect width="1170" height="400" fill="white"/>
</clipPath>
</defs>
</svg>
