<svg width="834" height="217" viewBox="0 0 834 217" fill="none" xmlns="http://www.w3.org/2000/svg">
<path fill-rule="evenodd" clip-rule="evenodd" d="M124.112 131.541C125.44 130.047 127.072 128.466 128.55 126.929C146.887 107.934 152.936 78.4568 145.12 53.5208C143.746 49.1395 142.218 45.5715 140.326 41.8995L135.658 33.8541C129.547 25.9875 125.603 20.8861 115.462 14.0555C98.7525 2.80081 78.3338 -0.833861 58.8618 3.27947C32.6725 8.81414 11.4845 27.3395 3.4698 53.4741C-7.68353 89.8648 8.67247 127.889 43.6098 143.746C52.8858 147.957 63.8938 150.603 74.1951 150.519C85.3845 150.423 90.0338 148.726 99.9138 145.995C101.315 147.267 104.852 152.462 105.736 154.194C100.931 158.339 99.7045 157.934 103.174 164.327C104.998 167.699 107.168 170.959 109.198 174.282L133.458 213.99C135.004 215.957 136.438 216.755 139.071 215.63L163.823 200.59C166.412 198.978 172.476 196.729 169.182 191.542C164.946 184.87 161.022 177.942 157.123 171.647C153.007 165.01 148.991 158.507 145.008 151.774C142.979 148.339 140.986 145.275 138.951 141.839C134.684 134.65 133.512 139.095 128.738 139.831C127.828 138.11 124.383 132.891 124.12 131.53L124.112 131.541ZM84.0938 10.2381C122.034 15.3661 145.066 51.9661 139.91 85.6808C134.031 124.105 98.7818 146.801 64.4445 141.901C54.2765 140.453 44.6685 136.295 37.0085 131.126C33.3165 128.627 30.3311 126.035 27.3325 123.109C23.6605 119.523 22.5978 117.882 19.8218 114.065C-12.3409 69.9448 23.2191 2.01014 84.0885 10.2368L84.0938 10.2381ZM108.844 142.453C109.775 141.554 115.792 137.803 117.04 137.358C117.691 137.945 120.707 143.198 121.131 144.366L112.708 149.058L108.84 142.451L108.844 142.453ZM132.814 148.335C134.171 149.405 159.504 191.863 159.888 192.866C155.923 195.447 152.118 197.229 149.27 199.097C145.711 201.423 142.158 203.502 138.606 205.309C137.386 204.174 127.37 186.766 125.118 183.337L118.39 172.297C116.123 168.69 113.746 164.894 111.803 161.221L132.814 148.335Z" fill="#D1AA09"/>
<path d="M238.374 52.1149H221.958C221.658 49.9911 221.046 48.1046 220.121 46.4555C219.197 44.7814 218.01 43.3572 216.561 42.1829C215.111 41.0085 213.437 40.109 211.538 39.4844C209.664 38.8597 207.628 38.5474 205.429 38.5474C201.456 38.5474 197.996 39.5343 195.047 41.5082C192.099 43.4572 189.813 46.3056 188.189 50.0535C186.565 53.7765 185.753 58.299 185.753 63.6211C185.753 69.0931 186.565 73.6906 188.189 77.4135C189.838 81.1365 192.137 83.9474 195.085 85.8464C198.033 87.7453 201.444 88.6948 205.317 88.6948C207.491 88.6948 209.502 88.4075 211.351 87.8328C213.225 87.2581 214.887 86.4211 216.336 85.3217C217.785 84.1973 218.984 82.8355 219.934 81.2364C220.908 79.6373 221.583 77.8133 221.958 75.7644L238.374 75.8394C237.949 79.3624 236.887 82.7606 235.188 86.0338C233.514 89.282 231.253 92.1929 228.404 94.7665C225.581 97.3151 222.208 99.339 218.285 100.838C214.387 102.312 209.977 103.049 205.054 103.049C198.208 103.049 192.087 101.5 186.69 98.402C181.318 95.3037 177.07 90.8186 173.947 84.9469C170.848 79.0751 169.299 71.9665 169.299 63.6211C169.299 55.2507 170.873 48.1296 174.022 42.2578C177.17 36.3861 181.442 31.9135 186.839 28.8402C192.237 25.7419 198.308 24.1928 205.054 24.1928C209.502 24.1928 213.625 24.8174 217.423 26.0667C221.246 27.316 224.631 29.14 227.58 31.5387C230.528 33.9124 232.927 36.8233 234.776 40.2714C236.65 43.7195 237.849 47.6674 238.374 52.1149ZM320.547 63.6211C320.547 71.9915 318.961 79.1126 315.787 84.9844C312.639 90.8561 308.341 95.3412 302.894 98.4395C297.472 101.513 291.376 103.049 284.605 103.049C277.783 103.049 271.662 101.5 266.24 98.402C260.818 95.3037 256.532 90.8186 253.384 84.9469C250.236 79.0751 248.662 71.9665 248.662 63.6211C248.662 55.2507 250.236 48.1296 253.384 42.2578C256.532 36.3861 260.818 31.9135 266.24 28.8402C271.662 25.7419 277.783 24.1928 284.605 24.1928C291.376 24.1928 297.472 25.7419 302.894 28.8402C308.341 31.9135 312.639 36.3861 315.787 42.2578C318.961 48.1296 320.547 55.2507 320.547 63.6211ZM304.094 63.6211C304.094 58.1991 303.282 53.6266 301.658 49.9036C300.059 46.1807 297.797 43.3572 294.874 41.4333C291.95 39.5093 288.527 38.5474 284.605 38.5474C280.682 38.5474 277.259 39.5093 274.335 41.4333C271.412 43.3572 269.138 46.1807 267.514 49.9036C265.915 53.6266 265.115 58.1991 265.115 63.6211C265.115 69.0431 265.915 73.6156 267.514 77.3386C269.138 81.0615 271.412 83.885 274.335 85.8089C277.259 87.7328 280.682 88.6948 284.605 88.6948C288.527 88.6948 291.95 87.7328 294.874 85.8089C297.797 83.885 300.059 81.0615 301.658 77.3386C303.282 73.6156 304.094 69.0431 304.094 63.6211ZM396.771 25.2422V102H382.754L349.36 53.689H348.797V102H332.569V25.2422H346.811L379.943 73.5157H380.617V25.2422H396.771ZM480.715 63.6211C480.715 71.9915 479.129 79.1126 475.956 84.9844C472.807 90.8561 468.51 95.3412 463.063 98.4395C457.641 101.513 451.544 103.049 444.773 103.049C437.951 103.049 431.83 101.5 426.408 98.402C420.986 95.3037 416.701 90.8186 413.552 84.9469C410.404 79.0751 408.83 71.9665 408.83 63.6211C408.83 55.2507 410.404 48.1296 413.552 42.2578C416.701 36.3861 420.986 31.9135 426.408 28.8402C431.83 25.7419 437.951 24.1928 444.773 24.1928C451.544 24.1928 457.641 25.7419 463.063 28.8402C468.51 31.9135 472.807 36.3861 475.956 42.2578C479.129 48.1296 480.715 55.2507 480.715 63.6211ZM464.262 63.6211C464.262 58.1991 463.45 53.6266 461.826 49.9036C460.227 46.1807 457.965 43.3572 455.042 41.4333C452.119 39.5093 448.696 38.5474 444.773 38.5474C440.85 38.5474 437.427 39.5093 434.503 41.4333C431.58 43.3572 429.306 46.1807 427.682 49.9036C426.083 53.6266 425.283 58.1991 425.283 63.6211C425.283 69.0431 426.083 73.6156 427.682 77.3386C429.306 81.0615 431.58 83.885 434.503 85.8089C437.427 87.7328 440.85 88.6948 444.773 88.6948C448.696 88.6948 452.119 87.7328 455.042 85.8089C457.965 83.885 460.227 81.0615 461.826 77.3386C463.45 73.6156 464.262 69.0431 464.262 63.6211ZM560.462 52.1149H544.046C543.746 49.9911 543.134 48.1046 542.21 46.4555C541.285 44.7814 540.098 43.3572 538.649 42.1829C537.2 41.0085 535.526 40.109 533.627 39.4844C531.753 38.8597 529.717 38.5474 527.518 38.5474C523.545 38.5474 520.084 39.5343 517.136 41.5082C514.188 43.4572 511.901 46.3056 510.277 50.0535C508.653 53.7765 507.841 58.299 507.841 63.6211C507.841 69.0931 508.653 73.6906 510.277 77.4135C511.926 81.1365 514.225 83.9474 517.174 85.8464C520.122 87.7453 523.533 88.6948 527.405 88.6948C529.579 88.6948 531.591 88.4075 533.44 87.8328C535.314 87.2581 536.975 86.4211 538.424 85.3217C539.874 84.1973 541.073 82.8355 542.022 81.2364C542.997 79.6373 543.672 77.8133 544.046 75.7644L560.462 75.8394C560.038 79.3624 558.976 82.7606 557.277 86.0338C555.602 89.282 553.341 92.1929 550.493 94.7665C547.669 97.3151 544.296 99.339 540.373 100.838C536.475 102.312 532.065 103.049 527.143 103.049C520.297 103.049 514.175 101.5 508.778 98.402C503.406 95.3037 499.158 90.8186 496.035 84.9469C492.937 79.0751 491.388 71.9665 491.388 63.6211C491.388 55.2507 492.962 48.1296 496.11 42.2578C499.258 36.3861 503.531 31.9135 508.928 28.8402C514.325 25.7419 520.397 24.1928 527.143 24.1928C531.591 24.1928 535.713 24.8174 539.511 26.0667C543.334 27.316 546.72 29.14 549.668 31.5387C552.617 33.9124 555.015 36.8233 556.864 40.2714C558.738 43.7195 559.938 47.6674 560.462 52.1149ZM572.1 102V25.2422H623.821V38.6223H588.328V56.9123H621.16V70.2924H588.328V88.6199H623.971V102H572.1ZM636.724 102V25.2422H652.952V88.6199H685.859V102H636.724ZM696.606 102V25.2422H748.328V38.6223H712.835V56.9123H745.667V70.2924H712.835V88.6199H748.478V102H696.606ZM802.87 47.3175C802.57 44.2942 801.283 41.9455 799.009 40.2714C796.736 38.5973 793.65 37.7603 789.752 37.7603C787.103 37.7603 784.867 38.1351 783.043 38.8847C781.219 39.6093 779.82 40.6212 778.845 41.9205C777.896 43.2198 777.421 44.694 777.421 46.3431C777.371 47.7173 777.659 48.9167 778.283 49.9411C778.933 50.9655 779.82 51.8526 780.944 52.6021C782.069 53.3267 783.368 53.9639 784.842 54.5136C786.316 55.0383 787.89 55.4881 789.565 55.8629L796.461 57.5119C799.809 58.2615 802.882 59.261 805.681 60.5103C808.479 61.7596 810.903 63.2963 812.952 65.1203C815.001 66.9443 816.587 69.0931 817.712 71.5667C818.861 74.0404 819.448 76.8763 819.473 80.0745C819.448 84.772 818.249 88.8447 815.875 92.2928C813.526 95.716 810.128 98.377 805.681 100.276C801.258 102.15 795.924 103.087 789.677 103.087C783.48 103.087 778.083 102.137 773.486 100.238C768.913 98.3395 765.34 95.5286 762.767 91.8056C760.218 88.0577 758.881 83.4227 758.756 77.9007H774.46C774.635 80.4743 775.372 82.6231 776.672 84.3472C777.996 86.0463 779.757 87.3331 781.956 88.2076C784.18 89.0571 786.691 89.4819 789.49 89.4819C792.238 89.4819 794.624 89.0821 796.648 88.2825C798.697 87.483 800.284 86.3711 801.408 84.9469C802.532 83.5227 803.095 81.8861 803.095 80.0371C803.095 78.313 802.582 76.8638 801.558 75.6895C800.558 74.5151 799.084 73.5157 797.135 72.6911C795.211 71.8666 792.85 71.117 790.052 70.4423L781.694 68.3435C775.222 66.7694 770.113 64.3082 766.365 60.9601C762.617 57.6119 760.755 53.1019 760.78 47.43C760.755 42.7825 761.992 38.7223 764.491 35.2492C767.014 31.7761 770.475 29.0651 774.873 27.1162C779.27 25.1672 784.267 24.1928 789.864 24.1928C795.561 24.1928 800.534 25.1672 804.781 27.1162C809.054 29.0651 812.377 31.7761 814.751 35.2492C817.124 38.7223 818.349 42.7451 818.424 47.3175H802.87Z" fill="#867100"/>
<path d="M243.144 139.826H239.228C238.996 138.699 238.591 137.709 238.012 136.857C237.443 136.004 236.748 135.288 235.927 134.709C235.117 134.119 234.216 133.677 233.227 133.382C232.237 133.088 231.205 132.94 230.132 132.94C228.173 132.94 226.399 133.435 224.81 134.425C223.23 135.414 221.972 136.872 221.035 138.799C220.109 140.726 219.646 143.089 219.646 145.89C219.646 148.69 220.109 151.054 221.035 152.98C221.972 154.907 223.23 156.365 224.81 157.355C226.399 158.344 228.173 158.839 230.132 158.839C231.205 158.839 232.237 158.692 233.227 158.397C234.216 158.102 235.117 157.665 235.927 157.086C236.748 156.497 237.443 155.775 238.012 154.923C238.591 154.059 238.996 153.07 239.228 151.954H243.144C242.849 153.607 242.312 155.086 241.533 156.391C240.754 157.697 239.786 158.807 238.628 159.723C237.47 160.629 236.169 161.318 234.727 161.792C233.295 162.266 231.763 162.503 230.132 162.503C227.373 162.503 224.92 161.829 222.773 160.481C220.625 159.134 218.935 157.218 217.703 154.733C216.472 152.249 215.856 149.301 215.856 145.89C215.856 142.479 216.472 139.531 217.703 137.046C218.935 134.562 220.625 132.645 222.773 131.298C224.92 129.95 227.373 129.277 230.132 129.277C231.763 129.277 233.295 129.513 234.727 129.987C236.169 130.461 237.47 131.156 238.628 132.072C239.786 132.977 240.754 134.083 241.533 135.388C242.312 136.683 242.849 138.162 243.144 139.826ZM250.799 162.061H246.693L258.569 129.719H262.612L274.487 162.061H270.381L260.717 134.835H260.464L250.799 162.061ZM252.315 149.427H268.865V152.901H252.315V149.427ZM305.171 129.719V162.061H301.381L283.757 136.667H283.441V162.061H279.525V129.719H283.315L301.002 155.175H301.318V129.719H305.171ZM322.988 162.061H313.007V129.719H323.43C326.567 129.719 329.252 130.366 331.484 131.661C333.716 132.946 335.427 134.793 336.616 137.204C337.806 139.604 338.401 142.479 338.401 145.826C338.401 149.195 337.801 152.096 336.601 154.528C335.4 156.949 333.653 158.813 331.358 160.118C329.063 161.413 326.273 162.061 322.988 162.061ZM316.924 158.586H322.735C325.409 158.586 327.625 158.07 329.384 157.039C331.142 156.007 332.453 154.538 333.316 152.633C334.179 150.727 334.611 148.458 334.611 145.826C334.611 143.216 334.184 140.968 333.332 139.083C332.479 137.188 331.205 135.735 329.51 134.725C327.815 133.704 325.704 133.193 323.177 133.193H316.924V158.586ZM348.887 129.719V162.061H344.97V129.719H348.887ZM366.72 162.061H356.739V129.719H367.162C370.299 129.719 372.984 130.366 375.216 131.661C377.448 132.946 379.158 134.793 380.348 137.204C381.538 139.604 382.133 142.479 382.133 145.826C382.133 149.195 381.532 152.096 380.332 154.528C379.132 156.949 377.384 158.813 375.089 160.118C372.794 161.413 370.004 162.061 366.72 162.061ZM360.656 158.586H366.467C369.141 158.586 371.357 158.07 373.115 157.039C374.874 156.007 376.184 154.538 377.048 152.633C377.911 150.727 378.343 148.458 378.343 145.826C378.343 143.216 377.916 140.968 377.063 139.083C376.211 137.188 374.937 135.735 373.242 134.725C371.547 133.704 369.436 133.193 366.909 133.193H360.656V158.586ZM388.509 162.061H384.403L396.278 129.719H400.321L412.196 162.061H408.091L398.426 134.835H398.173L388.509 162.061ZM390.025 149.427H406.574V152.901H390.025V149.427ZM411.687 133.193V129.719H435.943V133.193H425.773V162.061H421.857V133.193H411.687ZM439.536 162.061H435.43L447.306 129.719H451.348L463.224 162.061H459.118L449.453 134.835H449.201L439.536 162.061ZM441.052 149.427H457.602V152.901H441.052V149.427ZM485.949 137.804C485.759 136.204 484.99 134.962 483.643 134.077C482.295 133.193 480.642 132.751 478.684 132.751C477.252 132.751 476 132.982 474.926 133.446C473.862 133.909 473.031 134.546 472.431 135.356C471.841 136.167 471.546 137.088 471.546 138.12C471.546 138.983 471.752 139.726 472.162 140.347C472.583 140.957 473.12 141.468 473.773 141.878C474.426 142.279 475.11 142.61 475.826 142.873C476.542 143.126 477.2 143.331 477.8 143.489L481.085 144.374C481.927 144.595 482.864 144.9 483.896 145.29C484.938 145.679 485.933 146.211 486.88 146.885C487.838 147.548 488.628 148.401 489.249 149.443C489.87 150.485 490.181 151.764 490.181 153.28C490.181 155.028 489.723 156.607 488.807 158.018C487.901 159.429 486.575 160.55 484.827 161.381C483.09 162.213 480.979 162.629 478.495 162.629C476.179 162.629 474.173 162.255 472.478 161.508C470.794 160.76 469.467 159.718 468.498 158.381C467.54 157.044 466.998 155.491 466.872 153.722H470.915C471.02 154.944 471.431 155.954 472.146 156.754C472.873 157.544 473.789 158.134 474.894 158.523C476.01 158.902 477.21 159.092 478.495 159.092C479.99 159.092 481.332 158.85 482.522 158.365C483.711 157.87 484.654 157.186 485.348 156.312C486.043 155.428 486.391 154.396 486.391 153.217C486.391 152.143 486.091 151.269 485.491 150.596C484.89 149.922 484.101 149.374 483.122 148.953C482.143 148.532 481.085 148.164 479.948 147.848L475.968 146.711C473.441 145.984 471.441 144.947 469.967 143.6C468.493 142.252 467.756 140.489 467.756 138.31C467.756 136.499 468.246 134.92 469.225 133.572C470.215 132.214 471.541 131.161 473.204 130.414C474.878 129.656 476.747 129.277 478.811 129.277C480.895 129.277 482.748 129.65 484.369 130.398C485.991 131.135 487.275 132.145 488.223 133.43C489.181 134.714 489.686 136.172 489.739 137.804H485.949ZM506.348 129.719H510.833L519.802 144.816H520.181L529.151 129.719H533.636L521.95 148.732V162.061H518.034V148.732L506.348 129.719ZM577.234 139.826H573.317C573.086 138.699 572.68 137.709 572.101 136.857C571.533 136.004 570.838 135.288 570.017 134.709C569.206 134.119 568.306 133.677 567.316 133.382C566.327 133.088 565.295 132.94 564.221 132.94C562.263 132.94 560.489 133.435 558.899 134.425C557.32 135.414 556.062 136.872 555.125 138.799C554.199 140.726 553.735 143.089 553.735 145.89C553.735 148.69 554.199 151.054 555.125 152.98C556.062 154.907 557.32 156.365 558.899 157.355C560.489 158.344 562.263 158.839 564.221 158.839C565.295 158.839 566.327 158.692 567.316 158.397C568.306 158.102 569.206 157.665 570.017 157.086C570.838 156.497 571.533 155.775 572.101 154.923C572.68 154.059 573.086 153.07 573.317 151.954H577.234C576.939 153.607 576.402 155.086 575.623 156.391C574.844 157.697 573.875 158.807 572.717 159.723C571.559 160.629 570.259 161.318 568.817 161.792C567.385 162.266 565.853 162.503 564.221 162.503C561.463 162.503 559.01 161.829 556.862 160.481C554.714 159.134 553.025 157.218 551.793 154.733C550.561 152.249 549.945 149.301 549.945 145.89C549.945 142.479 550.561 139.531 551.793 137.046C553.025 134.562 554.714 132.645 556.862 131.298C559.01 129.95 561.463 129.277 564.221 129.277C565.853 129.277 567.385 129.513 568.817 129.987C570.259 130.461 571.559 131.156 572.717 132.072C573.875 132.977 574.844 134.083 575.623 135.388C576.402 136.683 576.939 138.162 577.234 139.826ZM584.889 162.061H580.783L592.658 129.719H596.701L608.577 162.061H604.471L594.806 134.835H594.553L584.889 162.061ZM586.405 149.427H602.955V152.901H586.405V149.427ZM639.26 129.719V162.061H635.47L617.846 136.667H617.531V162.061H613.614V129.719H617.404L635.091 155.175H635.407V129.719H639.26ZM657.077 162.061H647.097V129.719H657.52C660.657 129.719 663.342 130.366 665.574 131.661C667.805 132.946 669.516 134.793 670.706 137.204C671.896 139.604 672.49 142.479 672.49 145.826C672.49 149.195 671.89 152.096 670.69 154.528C669.49 156.949 667.742 158.813 665.447 160.118C663.152 161.413 660.362 162.061 657.077 162.061ZM651.013 158.586H656.825C659.499 158.586 661.715 158.07 663.473 157.039C665.231 156.007 666.542 154.538 667.405 152.633C668.269 150.727 668.7 148.458 668.7 145.826C668.7 143.216 668.274 140.968 667.421 139.083C666.568 137.188 665.295 135.735 663.6 134.725C661.905 133.704 659.794 133.193 657.267 133.193H651.013V158.586ZM682.976 129.719V162.061H679.06V129.719H682.976ZM700.809 162.061H690.829V129.719H701.251C704.389 129.719 707.073 130.366 709.305 131.661C711.537 132.946 713.248 134.793 714.438 137.204C715.627 139.604 716.222 142.479 716.222 145.826C716.222 149.195 715.622 152.096 714.422 154.528C713.222 156.949 711.474 158.813 709.179 160.118C706.884 161.413 704.094 162.061 700.809 162.061ZM694.745 158.586H700.557C703.231 158.586 705.447 158.07 707.205 157.039C708.963 156.007 710.274 154.538 711.137 152.633C712 150.727 712.432 148.458 712.432 145.826C712.432 143.216 712.006 140.968 711.153 139.083C710.3 137.188 709.026 135.735 707.331 134.725C705.636 133.704 703.525 133.193 700.999 133.193H694.745V158.586ZM722.598 162.061H718.492L730.368 129.719H734.41L746.286 162.061H742.18L732.515 134.835H732.263L722.598 162.061ZM724.114 149.427H740.664V152.901H724.114V149.427ZM745.777 133.193V129.719H770.033V133.193H759.863V162.061H755.947V133.193H745.777ZM802.019 145.89C802.019 149.301 801.404 152.249 800.172 154.733C798.94 157.218 797.25 159.134 795.103 160.481C792.955 161.829 790.502 162.503 787.744 162.503C784.985 162.503 782.532 161.829 780.385 160.481C778.237 159.134 776.547 157.218 775.315 154.733C774.084 152.249 773.468 149.301 773.468 145.89C773.468 142.479 774.084 139.531 775.315 137.046C776.547 134.562 778.237 132.645 780.385 131.298C782.532 129.95 784.985 129.277 787.744 129.277C790.502 129.277 792.955 129.95 795.103 131.298C797.25 132.645 798.94 134.562 800.172 137.046C801.404 139.531 802.019 142.479 802.019 145.89ZM798.229 145.89C798.229 143.089 797.761 140.726 796.824 138.799C795.898 136.872 794.639 135.414 793.05 134.425C791.471 133.435 789.702 132.94 787.744 132.94C785.785 132.94 784.011 133.435 782.422 134.425C780.843 135.414 779.584 136.872 778.647 138.799C777.721 140.726 777.258 143.089 777.258 145.89C777.258 148.69 777.721 151.054 778.647 152.98C779.584 154.907 780.843 156.365 782.422 157.355C784.011 158.344 785.785 158.839 787.744 158.839C789.702 158.839 791.471 158.344 793.05 157.355C794.639 156.365 795.898 154.907 796.824 152.98C797.761 151.054 798.229 148.69 798.229 145.89ZM826.292 137.804C826.102 136.204 825.334 134.962 823.986 134.077C822.638 133.193 820.986 132.751 819.027 132.751C817.596 132.751 816.343 132.982 815.269 133.446C814.206 133.909 813.374 134.546 812.774 135.356C812.184 136.167 811.889 137.088 811.889 138.12C811.889 138.983 812.095 139.726 812.505 140.347C812.926 140.957 813.463 141.468 814.116 141.878C814.769 142.279 815.453 142.61 816.169 142.873C816.885 143.126 817.543 143.331 818.143 143.489L821.428 144.374C822.27 144.595 823.207 144.9 824.239 145.29C825.281 145.679 826.276 146.211 827.223 146.885C828.181 147.548 828.971 148.401 829.592 149.443C830.213 150.485 830.524 151.764 830.524 153.28C830.524 155.028 830.066 156.607 829.15 158.018C828.245 159.429 826.918 160.55 825.17 161.381C823.433 162.213 821.322 162.629 818.838 162.629C816.522 162.629 814.516 162.255 812.821 161.508C811.137 160.76 809.81 159.718 808.842 158.381C807.884 157.044 807.341 155.491 807.215 153.722H811.258C811.363 154.944 811.774 155.954 812.49 156.754C813.216 157.544 814.132 158.134 815.237 158.523C816.353 158.902 817.553 159.092 818.838 159.092C820.333 159.092 821.675 158.85 822.865 158.365C824.054 157.87 824.997 157.186 825.692 156.312C826.386 155.428 826.734 154.396 826.734 153.217C826.734 152.143 826.434 151.269 825.834 150.596C825.234 149.922 824.444 149.374 823.465 148.953C822.486 148.532 821.428 148.164 820.291 147.848L816.311 146.711C813.784 145.984 811.784 144.947 810.31 143.6C808.836 142.252 808.099 140.489 808.099 138.31C808.099 136.499 808.589 134.92 809.568 133.572C810.558 132.214 811.884 131.161 813.548 130.414C815.222 129.656 817.09 129.277 819.154 129.277C821.238 129.277 823.091 129.65 824.712 130.398C826.334 131.135 827.618 132.145 828.566 133.43C829.524 134.714 830.029 136.172 830.082 137.804H826.292Z" fill="black"/>
<path fill-rule="evenodd" clip-rule="evenodd" d="M479.629 19.3457H440.403C440.18 19.3457 440 19.1657 440 18.943V13.4017C440 13.179 440.18 12.999 440.403 12.999H479.629C479.852 12.999 480.032 13.179 480.032 13.4017V18.943C480.032 19.1657 479.852 19.3457 479.629 19.3457Z" fill="#D1AA09"/>
</svg>
