<svg width="47" height="48" viewBox="0 0 47 48" fill="none" xmlns="http://www.w3.org/2000/svg">
<path d="M21.259 42.4235C33 42.4235 42.5179 32.9267 42.5179 21.2118C42.5179 9.49682 33 0 21.259 0C9.51797 0 0 9.49682 0 21.2118C0 32.9267 9.51797 42.4235 21.259 42.4235Z" fill="white"/>
<path d="M21.1496 4C11.6684 4 4 11.6669 4 21.1461C4 30.6254 11.6684 38.2923 21.1496 38.2923C24.5345 38.2923 27.6673 37.2994 30.3233 35.6132L42.7126 48L47 43.7135L34.7683 31.5158C36.9672 28.6318 38.2991 25.0584 38.2991 21.1461C38.2991 11.6669 30.6307 4 21.1496 4ZM21.1496 8.03438C28.4121 8.03438 34.2639 13.885 34.2639 21.1461C34.2639 28.4072 28.4121 34.2579 21.1496 34.2579C13.887 34.2579 8.03519 28.4072 8.03519 21.1461C8.03519 13.885 13.887 8.03438 21.1496 8.03438Z" fill="#272425"/>
</svg>
