<svg width="23" height="23" viewBox="0 0 23 23" fill="none" xmlns="http://www.w3.org/2000/svg">
<path fill-rule="evenodd" clip-rule="evenodd" d="M10.4348 5.5H3C2.72386 5.5 2.5 5.72386 2.5 6V20C2.5 20.2761 2.72386 20.5 3 20.5H17C17.2761 20.5 17.5 20.2761 17.5 20V10.8261H20V20C20 21.6569 18.6569 23 17 23H3C1.34315 23 0 21.6569 0 20V6C0 4.34315 1.34315 3 3 3H10.4348V5.5Z" fill="#656565"/>
<path d="M22.3962 0.933505C22.3595 0.382443 21.883 -0.0344986 21.3319 0.0022388L12.3518 0.60091C11.8008 0.637647 11.3838 1.11415 11.4206 1.66521C11.4573 2.21628 11.9338 2.63322 12.4849 2.59648L20.4672 2.06433L20.9993 10.0466C21.036 10.5977 21.5125 11.0146 22.0636 10.9779C22.6147 10.9411 23.0316 10.4646 22.9949 9.91357L22.3962 0.933505ZM9.66859 15.9241L22.151 1.65853L20.6458 0.341519L8.16344 14.6071L9.66859 15.9241Z" fill="#656565"/>
</svg>
