<svg width="46" height="50" viewBox="0 0 46 50" fill="none" xmlns="http://www.w3.org/2000/svg">
<g clip-path="url(#clip0_548_3008)">
<path d="M22.259 42.4235C34 42.4235 43.5179 32.9267 43.5179 21.2118C43.5179 9.49682 34 0 22.259 0C10.518 0 1 9.49682 1 21.2118C1 32.9267 10.518 42.4235 22.259 42.4235Z" fill="white"/>
<path d="M46.0197 34.5732L23.3244 20.9317C22.9177 20.6872 22.4228 20.703 22.0326 20.9727C21.6424 21.2425 21.4538 21.6992 21.5402 22.165L26.3223 47.933C26.3474 48.0675 26.4503 48.1755 26.5846 48.2062C26.7183 48.2372 26.8583 48.186 26.9402 48.076L31.8148 41.5262L37.0142 48.8602C37.35 49.3342 37.89 49.5887 38.4373 49.5887C38.7714 49.5887 39.1087 49.4937 39.4028 49.2952L42.5269 47.189C42.9144 46.928 43.1751 46.5315 43.2615 46.073C43.3471 45.614 43.2477 45.1505 42.9815 44.7672L37.7718 37.2722L45.9266 35.204C46.0621 35.1695 46.163 35.0575 46.1835 34.9197C46.2041 34.782 46.1392 34.6455 46.0197 34.5732Z" fill="#272425"/>
<path d="M37.1568 13.2962C36.8974 12.9635 36.5059 12.7725 36.0836 12.7725C35.7831 12.7725 35.4871 12.874 35.2499 13.0577L30.2967 16.8957C30.0097 17.118 29.8266 17.4387 29.7812 17.7985C29.7362 18.158 29.8341 18.5137 30.0562 18.7987C30.2791 19.0855 30.6005 19.2682 30.9611 19.3135C31.017 19.3205 31.0736 19.324 31.1302 19.324C31.4302 19.324 31.7263 19.223 31.9637 19.039L36.9172 15.201C37.2042 14.9787 37.387 14.6585 37.4326 14.2985C37.4779 13.9387 37.38 13.583 37.1568 13.2962Z" fill="#272425"/>
<path d="M15.7314 28.541C15.4314 28.541 15.1356 28.642 14.8979 28.826L9.9442 32.6645C9.35238 33.1233 9.24493 33.9775 9.70477 34.5688C9.92767 34.855 10.2488 35.037 10.6089 35.0823C10.665 35.0893 10.7216 35.0928 10.7782 35.0928C11.078 35.0928 11.3735 34.9918 11.6117 34.8078L16.5652 30.9695C16.852 30.7475 17.0348 30.427 17.0804 30.0675C17.1257 29.708 17.028 29.3518 16.8054 29.066C16.5461 28.732 16.1547 28.541 15.7314 28.541Z" fill="#272425"/>
<path d="M13.7592 24.0751C14.4426 24.0751 15.0222 23.5646 15.1079 22.8876C15.2013 22.1459 14.6726 21.4656 13.9287 21.3719L7.70545 20.5904C6.95334 20.4934 6.27987 21.0351 6.18746 21.7676C6.09404 22.5094 6.62275 23.1891 7.36659 23.2831L13.5901 24.0644C13.6467 24.0719 13.7033 24.0751 13.7592 24.0751Z" fill="#272425"/>
<path d="M14.6782 10.4744C14.4185 10.1414 14.0273 9.9502 13.6045 9.9502C13.3045 9.9502 13.0087 10.0512 12.7713 10.2352C12.4843 10.4577 12.3012 10.7784 12.2558 11.1382C12.2108 11.4979 12.3087 11.8537 12.5313 12.1394L16.3781 17.0824C16.601 17.3689 16.922 17.5514 17.2824 17.5964C17.3385 17.6034 17.3951 17.6069 17.4518 17.6069C17.7525 17.6069 18.0491 17.5054 18.2843 17.3227C18.5715 17.1007 18.7549 16.7807 18.8004 16.4207C18.846 16.0607 18.7483 15.7049 18.5254 15.4179L14.6782 10.4744Z" fill="#272425"/>
<path d="M25.5991 6.72669C24.847 6.63169 24.1738 7.17094 24.0811 7.90369L23.2984 14.1124C23.2531 14.4719 23.3508 14.8279 23.5734 15.1142C23.7963 15.4004 24.1174 15.5832 24.4781 15.6282C24.5352 15.6354 24.5918 15.6387 24.6476 15.6387C25.3316 15.6387 25.9112 15.1282 25.9961 14.4514L26.779 8.24194C26.8719 7.50019 26.3435 6.82069 25.5991 6.72669Z" fill="#272425"/>
</g>
<defs>
<clipPath id="clip0_548_3008">
<rect width="46" height="50" fill="white"/>
</clipPath>
</defs>
</svg>
