<svg width="743" height="303" viewBox="0 0 743 303" fill="none" xmlns="http://www.w3.org/2000/svg">
<path d="M742.484 291.662C742.05 277.449 737.079 264.224 728.107 253.418C719.158 242.637 706.894 235.07 692.642 231.536C688.817 230.588 684.993 229.634 681.171 228.679C672.746 226.575 664.034 224.401 655.444 222.33C654.982 222.218 654.823 222.13 654.818 222.127C654.801 222.096 654.724 221.948 654.648 221.564C654.051 218.53 653.281 215.401 652.297 211.999C652.215 211.718 652.208 211.582 652.201 211.575C652.218 211.544 652.285 211.429 652.481 211.221C662.863 200.187 669.551 186.94 672.359 171.843C672.402 171.783 672.467 171.711 672.517 171.671C679.529 168.456 683.556 162.943 684.487 155.282C685.186 149.518 685.954 143.659 686.697 137.991L686.853 136.8C688.15 126.899 684.819 119.649 676.95 115.243C677.122 110.218 677.364 104.337 677.836 98.3627C677.901 98.2332 678.131 97.8378 678.799 97.1798C682.27 93.7536 686.442 88.9329 687.901 81.9916C689.207 75.7914 688.206 69.6432 684.753 62.6441C677.639 48.2259 665.456 40.1687 647.508 38.0133C647.041 37.9567 646.519 37.8422 645.968 37.7208C645.662 37.6549 645.357 37.5878 645.051 37.5277C644.849 37.4883 644.644 37.4675 644.438 37.4675H630.3C630.123 37.4675 629.947 37.4826 629.772 37.5115C628.557 37.7173 627.338 37.9104 626.118 38.1047C623.387 38.5395 620.561 38.9892 617.773 39.5686C610.811 41.0128 604.569 43.47 599.22 46.8707C597.523 47.9507 595.645 48.4537 592.94 48.5543C582.791 48.9324 574.071 50.6438 566.283 53.7867C552.329 59.4156 544.417 70.189 542.772 85.8039C541.868 94.3838 542.759 102.85 543.622 111.038C543.753 112.271 543.881 113.504 544.006 114.737C538.517 117.338 535.086 121.417 534.024 126.643C533.169 130.858 533.491 135.151 533.802 139.302L533.907 140.721C534.134 143.92 534.588 147.099 535.026 150.174C535.259 151.805 535.5 153.494 535.699 155.14C536.733 163.663 541.388 169.512 549.17 172.073C549.18 172.127 549.19 172.18 549.198 172.227L549.249 172.513C551.521 184.762 556.698 196.154 564.617 206.345L564.682 206.44C564.896 206.766 565.253 207.31 565.896 207.778C567.916 209.248 568.788 210.881 567.263 214.879C566.761 216.197 566.499 217.602 566.266 218.842C566.024 220.137 565.724 221.749 565.245 222.236C564.729 222.762 562.799 223.073 561.39 223.299C560.422 223.456 559.421 223.616 558.441 223.866C554.65 224.833 550.78 225.787 547.038 226.708C539.048 228.676 530.787 230.711 522.718 233.014C515.643 235.033 508.75 238.601 502.957 242.904C504.389 244.445 505.833 246.078 507.126 247.759C512.241 244.019 518.244 240.867 524.454 239.096C532.411 236.825 540.617 234.804 548.55 232.849C552.305 231.924 556.188 230.968 560.005 229.994C560.708 229.815 561.526 229.683 562.395 229.544C564.924 229.136 567.79 228.676 569.762 226.664C571.587 224.803 572.063 222.253 572.484 220.003C572.684 218.931 572.873 217.918 573.173 217.132C575.476 211.089 574.378 206.297 569.911 202.882C569.821 202.748 569.729 202.616 569.631 202.489C562.318 193.079 557.553 182.605 555.467 171.358L555.426 171.125C555.217 169.95 554.732 167.198 551.357 166.133C545.791 164.376 542.723 160.53 541.979 154.378C541.771 152.666 541.524 150.945 541.287 149.281C540.844 146.179 540.427 143.249 540.215 140.273L540.109 138.829C539.829 135.107 539.541 131.258 540.224 127.902C540.976 124.193 543.757 121.438 548.489 119.713C549.86 119.213 550.711 117.841 550.549 116.39L550.465 115.654C550.416 115.231 550.375 114.865 550.338 114.498C550.201 113.123 550.057 111.749 549.912 110.375C549.045 102.151 548.226 94.3838 549.062 86.4677C550.463 73.1758 556.87 64.404 568.65 59.6515C575.748 56.7885 583.77 55.2251 593.177 54.8748C595.77 54.7788 599.185 54.3868 602.614 52.2071C607.314 49.2192 612.847 47.05 619.058 45.7607C621.701 45.2114 624.452 44.7743 627.113 44.3499C628.263 44.1673 629.414 43.9846 630.563 43.7914H644.119C644.284 43.8273 644.449 43.8631 644.615 43.9001C645.256 44.04 645.985 44.1996 646.753 44.2921C662.413 46.1735 672.986 53.0917 679.08 65.4423C681.874 71.1037 682.71 75.9487 681.713 80.6896C680.844 84.8165 678.576 88.5143 674.358 92.6771C672.594 94.4173 671.673 96.0697 671.542 97.7279C671.038 104.067 670.789 110.274 670.613 115.513C670.549 117.454 671.794 119.66 673.448 120.536C679.37 123.673 681.571 128.436 680.582 135.978L680.426 137.17C679.681 142.852 678.911 148.726 678.207 154.519C677.54 160.019 674.876 163.65 669.824 165.947C668.046 166.755 666.511 168.68 666.172 170.52C663.606 184.475 657.45 196.71 647.876 206.887C646 208.877 645.46 211.126 646.222 213.759C647.155 216.98 647.881 219.933 648.442 222.785C649.05 225.866 650.854 227.729 653.961 228.479C662.527 230.544 671.225 232.715 679.638 234.815C683.466 235.77 687.292 236.725 691.121 237.675C717.27 244.159 735.371 265.932 736.162 291.855C736.236 294.251 735.825 295.044 735.573 295.303C735.314 295.572 734.505 296.02 731.999 296.02H688.029C633.704 296.017 577.855 296.018 522.372 296.042C520.232 300.223 516.575 302.303 511.201 302.373C570.346 302.344 630.059 302.346 688.029 302.344H731.999C734.384 302.344 737.82 302.071 740.114 299.707C742.387 297.363 742.555 293.992 742.484 291.662Z" fill="#867100"/>
<path d="M513.176 240.592L499.843 250.192L506.51 277.76L517.636 299.234L521.436 300.721L601.552 298.573H733.373L739.567 296.661L737.584 280.898L733.373 269.5L729.16 260.332L719.744 251.164L710.328 242.987L695.957 236.298L664.489 227.202L650.118 223.57L650.365 212.758L649.869 207.555L660.029 195.414L664.489 182.28L667.958 172.865L673.408 166.67L679.604 160.972L683.568 143.874L684.807 131.98L682.329 127.769L679.851 120.335L676.135 117.362L674.401 113.397L673.904 103.981L675.143 95.805L681.338 89.6106L684.807 72.7608L677.621 57.1505L656.807 43.2747L634.011 41.2927H616.419L607.994 45.7526L594.119 52.1945L568.845 55.9121L550.261 69.5393L547.784 75.9823L545.306 95.805L546.544 106.212L547.784 113.645L547.288 115.659L540.58 120.583L537.377 125.291L536.385 137.184V145.609L540.58 162.21L545.553 166.67L549.518 170.537L553.729 175.591L554.722 183.272L556.704 188.971L561.163 195.165L566.614 202.846L570.332 209.041L568.349 221.182L564.136 228.369L552.739 229.36L523.996 235.554L513.176 240.592Z" fill="#867100"/>
<path d="M222.517 299.129C221.86 298.414 221.161 297.395 220.672 296.02H210.369C144.86 296.017 77.1264 296.019 10.504 296.061C8.01213 296.045 6.99457 295.472 6.32506 294.37V288.965C6.34703 288.878 6.37132 288.79 6.39329 288.702C6.54477 288.135 6.7159 287.491 6.79916 286.761C9.36965 264.343 25.4425 245.187 46.7939 239.097C54.7528 236.826 62.9569 234.804 70.8904 232.85C74.645 231.925 78.5279 230.968 82.3449 229.995C83.0479 229.815 83.8677 229.684 84.735 229.544C87.2639 229.138 90.1304 228.676 92.1019 226.664C93.9277 224.803 94.4041 222.253 94.8239 220.003C95.0239 218.931 95.2135 217.918 95.5142 217.132C97.8164 211.089 96.7179 206.297 92.2511 202.882C92.1609 202.749 92.0695 202.616 91.9712 202.49C84.6587 193.079 79.8935 182.605 77.8086 171.358L77.7659 171.126C77.5577 169.951 77.0721 167.198 73.6979 166.134C68.1326 164.376 65.0637 160.531 64.319 154.38C64.1109 152.666 63.8646 150.945 63.6276 149.281C63.1847 146.179 62.7672 143.249 62.5556 140.274L62.4493 138.829C62.1706 135.107 61.8815 131.258 62.5637 127.902C63.3165 124.194 66.0974 121.438 70.8291 119.713C72.2005 119.214 73.0527 117.841 72.8897 116.391L72.8052 115.654C72.7567 115.231 72.7151 114.865 72.6781 114.499C72.5416 113.124 72.3971 111.75 72.2525 110.376C71.3853 102.151 70.5678 94.384 71.4026 86.4678C72.8029 73.176 79.2113 64.4041 90.9907 59.6517C98.0881 56.7886 106.111 55.2264 115.517 54.8749C118.11 54.7789 121.527 54.3881 124.954 52.2073C129.654 49.2194 135.187 47.0501 141.398 45.7608C144.041 45.2116 146.793 44.7745 149.454 44.3501C150.603 44.1674 151.754 43.9847 152.903 43.7928H166.459C166.624 43.8275 166.79 43.8633 166.955 43.9003C167.597 44.0402 168.325 44.1998 169.094 44.2923C184.753 46.1736 195.326 53.0919 201.42 65.4425C204.215 71.105 205.051 75.9488 204.053 80.6897C203.185 84.8178 200.916 88.5145 196.698 92.6773C194.934 94.4175 194.013 96.0699 193.882 97.7292C193.378 104.067 193.129 110.275 192.954 115.513C192.889 117.454 194.134 119.66 195.788 120.536C201.71 123.674 203.911 128.436 202.922 135.979L202.766 137.17C202.021 142.852 201.251 148.726 200.547 154.521C199.88 160.019 197.216 163.65 192.164 165.947C190.387 166.756 188.851 168.68 188.512 170.521C185.946 184.475 179.79 196.711 170.216 206.887C168.341 208.877 167.8 211.126 168.562 213.759C169.495 216.98 170.223 219.934 170.782 222.785C171.391 225.867 173.194 227.729 176.301 228.479C184.867 230.544 193.566 232.715 201.979 234.815C205.806 235.77 209.634 236.726 213.461 237.675C221.583 239.689 229.245 243.521 235.536 248.151C236.832 246.442 238.313 244.647 239.754 243.08C232.658 237.811 224.013 233.776 214.983 231.536C211.158 230.588 207.335 229.634 203.511 228.679C195.086 226.575 186.375 224.402 177.784 222.331C177.323 222.22 177.163 222.131 177.159 222.128C177.141 222.097 177.065 221.948 176.989 221.564C176.392 218.53 175.623 215.401 174.638 211.999C174.557 211.718 174.549 211.583 174.542 211.576C174.558 211.544 174.625 211.43 174.821 211.221C185.203 200.187 191.891 186.941 194.7 171.843C194.744 171.783 194.808 171.712 194.857 171.671C201.869 168.457 205.896 162.943 206.827 155.283C207.528 149.52 208.296 143.659 209.038 137.992L209.194 136.8C210.49 126.9 207.159 119.65 199.291 115.243C199.463 110.219 199.704 104.338 200.176 98.3629C200.241 98.2334 200.472 97.8379 201.139 97.18C204.61 93.755 208.782 88.9331 210.243 81.9917C211.547 75.7915 210.547 69.6434 207.093 62.6442C199.979 48.2261 187.796 40.1689 169.848 38.0135C169.381 37.9568 168.859 37.8424 168.308 37.7221C168.003 37.655 167.697 37.588 167.392 37.5278C167.19 37.4885 166.984 37.4677 166.778 37.4677H152.64C152.463 37.4677 152.287 37.4827 152.114 37.5116C150.897 37.7175 149.678 37.9117 148.459 38.1048C145.727 38.5408 142.901 38.9894 140.113 39.5687C133.151 41.013 126.909 43.4701 121.56 46.8709C119.863 47.9509 117.985 48.4539 115.281 48.5556C105.131 48.9326 96.4115 50.6451 88.6237 53.7868C74.6692 59.4169 66.7577 70.1892 65.1123 85.8041C64.208 94.384 65.0995 102.851 65.9622 111.038C66.0928 112.271 66.2223 113.504 66.3461 114.737C60.8582 117.339 57.4262 121.418 56.3647 126.643C55.5102 130.858 55.8317 135.151 56.1427 139.302L56.2468 140.722C56.4746 143.921 56.9279 147.099 57.3661 150.174C57.5997 151.806 57.8402 153.494 58.0402 155.14C59.0728 163.664 63.7282 169.512 71.5102 172.074C71.5206 172.127 71.5298 172.18 71.5379 172.228L71.5888 172.513C73.861 184.762 79.0378 196.154 86.9574 206.346L87.0222 206.442C87.2361 206.767 87.5946 207.31 88.2363 207.778C90.2564 209.248 91.1283 210.881 89.6042 214.879C89.1012 216.197 88.8388 217.602 88.6075 218.842C88.3647 220.137 88.064 221.749 87.5853 222.236C87.0696 222.762 85.1397 223.073 83.7301 223.3C82.7623 223.456 81.7621 223.616 80.7815 223.866C76.99 224.833 73.1198 225.787 69.3779 226.708C61.3889 228.676 53.127 230.712 45.0583 233.014C21.2751 239.8 3.3753 261.11 0.51457 286.043C0.484506 286.315 0.385067 286.687 0.280999 287.08C0.211619 287.341 0.142226 287.602 0.0820976 287.865C0.0277506 288.098 0 288.339 0 288.579V295.145C0 295.605 0.100605 296.062 0.294867 296.479C3.00874 302.31 8.51167 302.385 10.4312 302.385H10.5075C77.1287 302.344 144.864 302.347 210.369 302.344H235.432C233.876 302.341 232.319 302.339 230.77 302.326C226.342 302.289 223.838 300.566 222.517 299.129Z" fill="#867100"/>
<path d="M239.338 249.261L235.218 241.586L216.498 235.97L200.64 232.004L181.478 225.727L174.21 223.745L171.567 213.173V209.869L175.862 203.593L182.799 195.002L187.425 186.082L191.059 173.858L191.719 169.926L198.328 164.938L202.291 159.982L205.452 151.495V137.519V130.909L202.291 120.007L197.038 115.66L196.675 106.131L198.328 96.8806C198.328 96.8806 200.31 91.594 201.3 90.9337C202.291 90.2735 207.247 83.0048 207.247 83.0048L207.578 73.7543L203.282 62.8514L196.675 53.9315L188.416 46.6629L174.871 41.7081H163.638H145.797L128.949 46.6629L120.771 49.9665L113.091 51.6189L98.8843 53.6008L88.3121 57.5658L82.8612 60.2092L76.7489 64.8345L74.4362 67.8074C74.4362 67.8074 74.4362 68.7983 73.1146 70.7802L71.7929 72.7633C71.7929 72.7633 73.776 73.0929 71.7929 75.4055C69.811 77.7181 69.1507 80.0308 69.1507 80.0308V95.8897V115.547L60.5604 122.98V141.812V158.66L66.5074 166.59L73.776 170.547L76.7489 182.448L82.8612 192.359L87.9813 201.61L90.9554 205.727L92.6066 213.503L91.2849 219.781L87.6518 225.067L46.0244 235.639L22.5673 249.261L7.7005 269.667L3.40479 283.873V294.115L6.32448 298.74H224.923L225.914 283.13L228.392 270.741L235.218 257.361L239.338 249.261Z" fill="#867100"/>
<path d="M333.352 295.726C319.616 295.726 305.942 295.726 292.356 295.727H264.62H258.056H250.726C248.749 295.727 246.771 295.73 244.793 295.734C240.214 295.743 235.479 295.751 230.832 295.712C229.403 295.7 228.341 295.395 227.843 294.854C227.275 294.236 227.235 293.076 227.299 292.213L227.353 291.521C227.717 286.698 228.094 281.71 229.322 277.218C231.854 267.957 235.705 259.926 240.826 253.12C242.118 251.403 243.502 249.774 244.958 248.215C253.505 239.056 264.832 232.606 278.916 228.985C287.16 226.866 295.566 224.783 303.696 222.768C309.603 221.304 315.51 219.841 321.409 218.352C323.325 217.868 325.966 216.941 326.775 214.471C327.611 211.93 328.196 209.408 328.762 206.97C328.95 206.157 329.135 205.359 329.325 204.585C329.797 202.657 328.628 200.709 326.705 200.22C323.747 199.466 320.785 198.749 317.921 198.057C311.235 196.441 304.92 194.914 298.674 192.95C291.528 190.701 284.368 187.424 278.049 184.531C277.148 184.118 276.576 183.47 276.438 182.707C276.315 182.028 276.564 181.335 277.139 180.755C287.12 170.713 291.717 158.132 294.606 148.293C299.023 133.256 301.045 116.836 301.159 95.0547C301.234 80.8286 303.488 68.3369 308.051 56.8662C317.107 34.0994 332.917 18.4984 355.044 10.4955C357.73 9.52422 360.547 8.85818 363.529 8.15167C364.762 7.86028 366.032 7.55964 367.296 7.23472H378.311C378.798 7.4232 379.478 7.66371 380.299 7.72268C387.788 8.26962 394.354 11.1916 400.369 16.6541C402.182 18.3007 404.99 19.3922 407.518 19.4339C417.084 19.5958 424.245 23.5538 429.411 31.5324C434.899 40.0105 438.155 49.9688 439.365 61.976C440.585 74.1011 441.121 86.5558 441.639 98.5989L441.84 103.22C442.435 116.738 443.674 132.692 448.36 148.522C451.307 158.483 455.53 169.941 464.49 179.384C465.782 180.745 466.472 182.031 466.333 182.822C466.207 183.542 465.241 184.421 463.747 185.172C454.17 189.992 443.7 193.684 431.741 196.463C428.26 197.271 424.823 198.005 421.184 198.783C419.55 199.134 417.905 199.485 416.243 199.846C415.291 200.053 414.463 200.635 413.946 201.459C413.43 202.284 413.268 203.283 413.495 204.228C413.709 205.113 413.927 205.973 414.141 206.817C414.604 208.649 415.043 210.379 415.361 212.086C415.998 215.507 418.007 217.584 421.506 218.434C437.209 222.246 451.107 225.697 463.993 228.983C478.097 232.579 489.306 238.846 497.805 247.898C499.241 249.428 500.593 251.045 501.874 252.736C506.762 259.184 510.55 266.783 513.236 275.618C514.026 278.217 514.506 280.94 515.013 283.822C515.229 285.049 515.453 286.314 515.702 287.575V293.827C514.923 295.094 513.754 295.773 510.933 295.773H510.92C502.17 295.767 493.401 295.761 484.622 295.757C482.302 295.756 479.98 295.755 477.66 295.753C429.494 295.73 381.048 295.726 333.352 295.726ZM522.865 286.497C522.603 285.209 522.366 283.865 522.138 282.568C521.615 279.6 521.075 276.531 520.158 273.515C517.199 263.78 512.92 255.326 507.388 248.132C506.096 246.45 504.745 244.826 503.312 243.284C493.818 233.065 481.283 225.927 465.781 221.973C452.867 218.681 438.943 215.223 423.214 211.405C422.848 211.316 422.664 211.233 422.588 211.194C422.562 211.132 422.516 210.999 422.472 210.762C422.179 209.191 421.819 207.684 421.428 206.129C421.851 206.039 422.274 205.948 422.696 205.858C426.368 205.073 429.835 204.333 433.377 203.509C445.905 200.6 456.901 196.715 466.998 191.635C471.656 189.291 473.083 186.225 473.46 184.066C473.846 181.854 473.513 178.382 469.738 174.404C461.831 166.072 458 155.606 455.296 146.468C450.832 131.387 449.642 115.983 449.067 102.903L448.867 98.2878C448.343 86.1418 447.802 73.5842 446.562 61.251C445.235 48.0724 441.611 37.0654 435.484 27.6009C428.998 17.5849 419.631 12.4046 407.64 12.2011C406.872 12.1884 405.747 11.7675 405.232 11.2992C398.122 4.84229 389.971 1.21607 381.004 0.522281C380.934 0.495686 380.863 0.465624 380.792 0.437872C380.554 0.344211 380.315 0.252873 380.076 0.1754C379.717 0.0597683 379.342 0.000794933 378.966 0.000794933H366.836C366.526 0.000794933 366.217 0.0412624 365.918 0.119892C364.588 0.467944 363.203 0.79634 361.864 1.11201C358.813 1.83356 355.66 2.57938 352.583 3.69291C328.427 12.43 311.183 29.421 301.329 54.1928C296.426 66.518 294.005 79.8711 293.925 95.0166C293.814 116.092 291.884 131.895 287.665 146.254C285.017 155.273 280.843 166.767 272.01 175.656C269.75 177.928 268.771 180.969 269.321 183.999C269.885 187.113 271.969 189.704 275.038 191.108C281.548 194.089 288.928 197.466 296.503 199.851C302.983 201.888 309.413 203.442 316.221 205.089C317.947 205.505 319.707 205.931 321.475 206.367C321.1 207.968 320.704 209.59 320.229 211.17C320.073 211.22 319.878 211.277 319.639 211.338C313.749 212.825 307.852 214.286 301.956 215.747C293.811 217.765 285.388 219.851 277.115 221.978C261.414 226.015 248.809 233.241 239.338 243.528C237.896 245.095 236.514 246.721 235.218 248.43C229.479 256.004 225.172 264.965 222.343 275.311C220.933 280.471 220.529 285.812 220.138 290.977L220.087 291.665C219.932 293.692 220.207 295.329 220.673 296.64C221.16 298.016 221.86 299.034 222.517 299.748C223.839 301.187 226.343 302.909 230.771 302.946C232.319 302.96 233.877 302.961 235.432 302.965H247.077C248.293 302.963 249.51 302.961 250.726 302.961H254.592H292.357C356.255 302.956 422.09 302.956 487.273 302.992C491.231 302.994 495.18 302.997 499.134 303C503.155 302.998 507.173 302.995 511.201 302.993C516.574 302.924 520.232 300.845 522.372 296.663C522.441 296.528 522.524 296.411 522.589 296.271C522.818 295.787 522.936 295.26 522.936 294.724V287.215C522.936 286.973 522.912 286.734 522.865 286.497Z" fill="#D1AA09"/>
<path d="M403.822 13.7885L387.964 7.23332L375.079 2.88559L354.266 7.23332L327.009 23.2044L313.629 37.4664L300.744 68.7957L297.275 100.016L294.797 135.862L287.199 155.355L281.252 170.545L274.645 176.499V183.437L277.949 189.053L303.388 198.634L322.88 202.599L324.862 206.233L321.889 212.841L298.432 221.43L262.42 232.002L242.894 241.914L231.035 262.066L223.767 284.863V294.113L229.383 300.721H511.201L515.703 298.408L519.784 292.13L513.838 264.709L499.844 245.878L485.755 235.636L476.174 231.342L448.093 220.769L430.583 217.135L419.68 213.501L418.028 204.25L461.307 190.045L470.228 184.758L467.254 176.829L458.334 166.919L452.706 151.803L447.431 129.255L445.119 103.485L443.467 79.3679L441.155 55.912L439.172 42.0362L435.208 32.4549L424.966 21.8827L407.456 16.2665L403.822 13.7885Z" fill="#D1AA09"/>
</svg>
