<svg width="464" height="42" viewBox="0 0 464 42" fill="none" xmlns="http://www.w3.org/2000/svg">
<path d="M59.3549 4.58203V10.2072H50.3133V32.5037H43.0807V10.2112H34V4.58596H59.3588L59.3549 4.58203Z" fill="#202020"/>
<path d="M71.0068 19.0963C71.0068 18.1096 70.7333 17.3274 70.1862 16.7495C69.6392 16.1716 68.9046 15.8808 67.9786 15.8808C67.0525 15.8808 66.2593 16.1127 65.6029 16.5765C64.9425 17.0443 64.4893 17.8698 64.2353 19.053L58.1789 17.6143C58.5696 15.582 59.609 13.9585 61.293 12.7478C62.9732 11.5331 65.345 10.9277 68.4006 10.9277C70.448 10.9277 72.1946 11.2304 73.6364 11.8397C75.0783 12.4451 76.1879 13.3492 76.9577 14.5482C77.7275 15.7471 78.1143 17.2212 78.1143 18.9705V26.7145C78.1143 27.8152 78.6027 28.3616 79.5834 28.3616C80.0875 28.3616 80.4939 28.3065 80.8026 28.1925L80.3806 32.2965C79.5405 32.6896 78.5167 32.8901 77.3133 32.8901C76.2192 32.8901 75.2541 32.7132 74.4101 32.3594C73.57 32.0095 72.9097 31.471 72.433 30.7516C71.9563 30.0322 71.7179 29.1242 71.7179 28.0235V27.768L72.5189 27.4692C72.5189 28.6839 72.1634 29.6981 71.4483 30.5157C70.7333 31.3334 69.8111 31.9427 68.6741 32.3358C67.5409 32.7328 66.3531 32.9294 65.1223 32.9294C63.6922 32.9294 62.4457 32.7014 61.379 32.2532C60.3123 31.8012 59.4917 31.1447 58.9174 30.2838C58.343 29.4229 58.0538 28.3576 58.0538 27.0879C58.0538 25.5627 58.511 24.3009 59.4214 23.3024C60.3318 22.3 61.7697 21.6042 63.7312 21.2072L71.6788 19.5562L71.6359 23.3653L67.5995 24.2105C66.7595 24.3795 66.1343 24.6272 65.7279 24.9495C65.3215 25.2758 65.1184 25.7632 65.1184 26.4118C65.1184 27.0604 65.3411 27.5007 65.7904 27.8073C66.2398 28.1179 66.7712 28.2712 67.3885 28.2712C67.8652 28.2712 68.3185 28.2004 68.7561 28.0589C69.1937 27.9174 69.5767 27.7012 69.9127 27.4024C70.2487 27.1037 70.5144 26.7342 70.7137 26.2821C70.9091 25.83 71.0068 25.2954 71.0068 24.6743V19.0884V19.0963Z" fill="#202020"/>
<path d="M83.6197 32.5087V11.3523H90.0122L90.2232 15.4562C90.8953 13.9585 91.8409 12.8342 93.0639 12.0716C94.283 11.3129 95.6896 10.9316 97.2877 10.9316C98.8859 10.9316 100.218 11.2854 101.367 11.9891C102.516 12.6966 103.372 13.7384 103.93 15.1221C104.38 14.1943 104.962 13.416 105.677 12.7949C106.392 12.1738 107.212 11.71 108.135 11.3994C109.061 11.0889 110.014 10.9316 110.995 10.9316C112.398 10.9316 113.632 11.2068 114.695 11.7571C115.758 12.3075 116.61 13.1369 117.239 14.2533C117.868 15.3697 118.184 16.7573 118.184 18.4201V32.5087H111.034V20.0711C111.034 18.7189 110.776 17.7715 110.256 17.2369C109.737 16.7023 109.041 16.435 108.174 16.435C107.47 16.435 106.833 16.6119 106.259 16.9617C105.685 17.3155 105.243 17.8423 104.934 18.5459C104.626 19.2535 104.469 20.1419 104.469 21.2111V32.5048H97.3229V20.0672C97.3229 18.715 97.0533 17.7676 96.5219 17.233C95.9905 16.6984 95.3028 16.4311 94.4627 16.4311C93.818 16.4311 93.2045 16.6001 92.6341 16.9382C92.0597 17.2762 91.6025 17.8069 91.2665 18.5263C90.9304 19.2456 90.7624 20.1851 90.7624 21.3408V32.5087H83.6119H83.6197Z" fill="#202020"/>
<path d="M134.927 19.0963C134.927 18.1096 134.654 17.3274 134.107 16.7495C133.56 16.1716 132.825 15.8808 131.903 15.8808C130.981 15.8808 130.184 16.1127 129.527 16.5765C128.871 17.0443 128.414 17.8698 128.16 19.053L122.103 17.6143C122.498 15.582 123.534 13.9585 125.218 12.7478C126.902 11.5331 129.27 10.9277 132.325 10.9277C134.369 10.9277 136.119 11.2304 137.561 11.8397C139.003 12.4451 140.113 13.3492 140.882 14.5482C141.652 15.7471 142.039 17.2212 142.039 18.9705V26.7145C142.039 27.8152 142.527 28.3616 143.512 28.3616C144.016 28.3616 144.422 28.3065 144.731 28.1925L144.309 32.2965C143.469 32.6896 142.445 32.8901 141.242 32.8901C140.148 32.8901 139.183 32.7132 138.339 32.3594C137.498 32.0095 136.838 31.471 136.361 30.7516C135.885 30.0322 135.646 29.1242 135.646 28.0235V27.768L136.447 27.4692C136.447 28.6839 136.092 29.6981 135.377 30.5157C134.662 31.3334 133.736 31.9427 132.603 32.3358C131.469 32.7328 130.282 32.9294 129.051 32.9294C127.621 32.9294 126.374 32.7014 125.307 32.2532C124.241 31.8012 123.424 31.1447 122.846 30.2838C122.268 29.4229 121.982 28.3576 121.982 27.0879C121.982 25.5627 122.439 24.3009 123.35 23.3024C124.26 22.304 125.698 21.6042 127.66 21.2072L135.607 19.5562L135.564 23.3653L131.528 24.2105C130.688 24.3795 130.063 24.6272 129.656 24.9495C129.25 25.2758 129.047 25.7632 129.047 26.4118C129.047 27.0604 129.27 27.5007 129.719 27.8073C130.168 28.1179 130.7 28.2712 131.317 28.2712C131.794 28.2712 132.251 28.2004 132.685 28.0589C133.118 27.9174 133.505 27.7012 133.841 27.4024C134.177 27.1037 134.443 26.7342 134.642 26.2821C134.838 25.83 134.939 25.2954 134.939 24.6743V19.0884L134.927 19.0963Z" fill="#202020"/>
<path d="M154.652 32.9326C153.222 32.9326 151.967 32.6849 150.889 32.1936C149.811 31.6983 148.959 30.9042 148.341 29.8035C147.724 28.7029 147.419 27.2641 147.419 25.4873V11.3516H154.57V23.7931C154.57 25.1453 154.835 26.0927 155.371 26.6273C155.906 27.1619 156.66 27.4332 157.641 27.4332C158.145 27.4332 158.622 27.3427 159.071 27.158C159.52 26.9732 159.911 26.6941 160.247 26.3128C160.583 25.9315 160.845 25.4402 161.025 24.8309C161.208 24.2255 161.298 23.514 161.298 22.6924V11.3555H168.449V32.508H162.056L161.845 28.5299C161.173 30.0276 160.231 31.1322 159.028 31.8516C157.821 32.5709 156.363 32.9286 154.656 32.9286L154.652 32.9326Z" fill="#202020"/>
<path d="M180.64 2.38477V25.3141C180.64 26.2457 180.796 26.9101 181.101 27.3032C181.409 27.7002 181.929 27.8968 182.66 27.8968C183.078 27.8968 183.43 27.8692 183.711 27.8103C183.992 27.7552 184.328 27.6688 184.719 27.5548L184.254 31.871C183.75 32.1815 183.09 32.437 182.277 32.6336C181.464 32.8301 180.663 32.9284 179.882 32.9284C177.639 32.9284 176.013 32.4056 175.001 31.3639C173.993 30.3222 173.485 28.6122 173.485 26.2457V2.38477H180.636H180.64Z" fill="#202020"/>
<path d="M190.905 8.89885C189.447 8.89885 188.388 8.62368 187.728 8.07335C187.067 7.52301 186.739 6.65427 186.739 5.47105C186.739 4.28782 187.071 3.37584 187.728 2.8255C188.384 2.27517 189.443 2 190.905 2C192.366 2 193.386 2.27517 194.058 2.8255C194.734 3.37584 195.066 4.25638 195.066 5.47105C195.066 6.68571 194.73 7.52301 194.058 8.07335C193.386 8.62368 192.335 8.89885 190.905 8.89885ZM194.48 11.3518V32.5043H187.329V11.3518H194.48Z" fill="#202020"/>
<path d="M199.563 41.3927V11.3523H205.995L206.374 19.0098L205.534 18.1214C205.729 16.7102 206.163 15.468 206.839 14.3988C207.511 13.3256 208.378 12.4805 209.445 11.8594C210.512 11.2383 211.727 10.9277 213.102 10.9277C214.837 10.9277 216.353 11.3601 217.643 12.2171C218.932 13.074 219.932 14.3162 220.647 15.9397C221.362 17.5632 221.718 19.5287 221.718 21.844C221.718 24.1594 221.355 26.1445 220.624 27.8073C219.893 29.474 218.877 30.7437 217.576 31.6164C216.271 32.4891 214.751 32.9294 213.012 32.9294C211.102 32.9294 209.562 32.3594 208.386 31.2155C207.21 30.0716 206.425 28.625 206.034 26.8796L206.706 25.8654V41.3927H199.559H199.563ZM210.582 27.6422C211.813 27.6422 212.782 27.1823 213.485 26.2664C214.189 25.3505 214.536 23.9039 214.536 21.9305C214.536 19.9572 214.192 18.5106 213.505 17.5947C212.817 16.6787 211.86 16.2188 210.625 16.2188C209.84 16.2188 209.152 16.439 208.566 16.8753C207.976 17.3116 207.519 17.9524 207.198 18.8015C206.874 19.6466 206.714 20.6923 206.714 21.9344C206.714 23.1766 206.862 24.1397 207.155 25.0006C207.452 25.8615 207.894 26.518 208.48 26.97C209.07 27.4221 209.769 27.6461 210.582 27.6461V27.6422Z" fill="#202020"/>
<path d="M237.457 19.0963C237.457 18.1096 237.183 17.3274 236.636 16.7495C236.089 16.1716 235.355 15.8808 234.429 15.8808C233.503 15.8808 232.713 16.1127 232.053 16.5765C231.393 17.0443 230.935 17.8698 230.685 19.053L224.633 17.6143C225.024 15.582 226.063 13.9585 227.743 12.7478C229.423 11.5331 231.795 10.9277 234.851 10.9277C236.898 10.9277 238.641 11.2304 240.087 11.8397C241.528 12.4451 242.638 13.3492 243.408 14.5482C244.178 15.7471 244.564 17.2212 244.564 18.9705V26.7145C244.564 27.8152 245.057 28.3616 246.037 28.3616C246.541 28.3616 246.948 28.3065 247.257 28.1925L246.838 32.2965C245.998 32.6896 244.975 32.8901 243.767 32.8901C242.673 32.8901 241.708 32.7132 240.864 32.3594C240.024 32.0095 239.364 31.471 238.887 30.7516C238.41 30.0322 238.172 29.1242 238.172 28.0235V27.768L238.973 27.4692C238.973 28.6839 238.617 29.6981 237.902 30.5157C237.187 31.3334 236.265 31.9427 235.128 32.3358C233.991 32.7328 232.807 32.9294 231.572 32.9294C230.142 32.9294 228.896 32.7014 227.829 32.2532C226.762 31.8012 225.942 31.1447 225.367 30.2838C224.793 29.4229 224.504 28.3576 224.504 27.0879C224.504 25.5627 224.961 24.3009 225.871 23.3024C226.782 22.3 228.22 21.6042 230.181 21.2072L238.129 19.5562L238.086 23.3653L234.05 24.2105C233.21 24.3795 232.584 24.6272 232.178 24.9495C231.772 25.2758 231.568 25.7632 231.568 26.4118C231.568 27.0604 231.795 27.5007 232.244 27.8073C232.694 28.1179 233.225 28.2712 233.843 28.2712C234.319 28.2712 234.776 28.2004 235.21 28.0589C235.644 27.9174 236.031 27.7012 236.367 27.4024C236.703 27.1037 236.968 26.7342 237.168 26.2821C237.363 25.83 237.461 25.2954 237.461 24.6743V19.0884L237.457 19.0963Z" fill="#202020"/>
<path d="M258.904 32.9333C256.802 32.9333 254.845 32.5873 253.039 31.8955C251.234 31.2036 249.738 30.2091 248.562 28.9119L251.926 24.9337C252.625 25.8379 253.559 26.5926 254.723 27.198C255.888 27.8034 257.181 28.106 258.611 28.106C259.483 28.106 260.198 27.9802 260.756 27.7247C261.319 27.4692 261.6 27.0761 261.6 26.5415C261.6 26.1484 261.46 25.83 261.178 25.5902C260.897 25.3504 260.338 25.146 259.494 24.977L256.552 24.3834C253.919 23.8488 252.047 23.0508 250.937 21.9934C249.827 20.936 249.277 19.5444 249.277 17.8266C249.277 16.6709 249.628 15.5623 250.328 14.5049C251.027 13.4475 252.106 12.5866 253.567 11.9262C255.024 11.2658 256.888 10.9316 259.158 10.9316C261.288 10.9316 263.167 11.2422 264.793 11.8633C266.418 12.4844 267.708 13.3885 268.661 14.5717L265.254 18.4634C264.582 17.6182 263.71 16.9539 262.648 16.4743C261.581 15.9947 260.518 15.7549 259.451 15.7549C258.775 15.7549 258.209 15.8178 257.748 15.9436C257.283 16.0733 256.939 16.2502 256.716 16.4743C256.493 16.7023 256.38 16.9814 256.38 17.3195C256.38 17.689 256.552 18.0035 256.904 18.2708C257.255 18.5381 257.908 18.7739 258.861 18.9705L262.691 19.7291C264.847 20.1262 266.403 20.8455 267.36 21.8872C268.313 22.9329 268.79 24.1869 268.79 25.6531C268.79 27.0368 268.427 28.2751 267.696 29.3757C266.965 30.4764 265.871 31.3412 264.414 31.978C262.956 32.6109 261.12 32.9293 258.904 32.9293V32.9333Z" fill="#202020"/>
<path d="M296.794 4.58203C301.139 4.58203 304.468 5.7967 306.781 8.22211C309.095 10.6475 310.251 14.091 310.251 18.5448C310.251 22.9986 309.095 26.4421 306.781 28.8676C304.468 31.293 301.139 32.5037 296.794 32.5037H285.017V4.58203H296.794ZM296.079 27.0043C298.431 27.0043 300.151 26.2928 301.229 24.8698C302.307 23.4467 302.847 21.3358 302.847 18.5448C302.847 15.7538 302.307 13.6468 301.229 12.2199C300.147 10.793 298.431 10.0815 296.079 10.0815H292.25V27.0043H296.079Z" fill="#202020"/>
<path d="M324.97 32.9333C322.641 32.9333 320.633 32.497 318.933 31.6204C317.233 30.7437 315.928 29.4898 315.002 27.8545C314.08 26.2192 313.615 24.2459 313.615 21.9305C313.615 19.6152 314.076 17.6418 315.002 16.0065C315.928 14.3713 317.226 13.1173 318.894 12.2407C320.559 11.368 322.473 10.9277 324.634 10.9277C326.795 10.9277 328.737 11.3601 330.288 12.2171C331.843 13.078 333.027 14.2612 333.844 15.7707C334.656 17.2802 335.063 19.0059 335.063 20.9517C335.063 21.4588 335.047 21.9659 335.02 22.4769C334.992 22.984 334.949 23.4046 334.895 23.7466H318.242V19.8943H331.742L328.334 21.2072C328.334 19.513 328.033 18.2197 327.432 17.3156C326.83 16.4114 325.896 15.9633 324.634 15.9633C323.735 15.9633 322.969 16.1756 322.34 16.5962C321.711 17.0168 321.235 17.6851 320.91 18.5853C320.59 19.4894 320.43 20.6412 320.43 22.0524C320.43 23.4636 320.613 24.5564 320.977 25.4173C321.34 26.2782 321.86 26.8993 322.532 27.2766C323.208 27.6579 324.021 27.8466 324.97 27.8466C326.037 27.8466 326.885 27.6344 327.514 27.2137C328.143 26.7931 328.612 26.1995 328.924 25.4369L334.645 27.3395C334.25 28.5542 333.574 29.5762 332.605 30.4057C331.636 31.2351 330.487 31.8641 329.155 32.2886C327.826 32.7092 326.431 32.9215 324.97 32.9215V32.9333Z" fill="#202020"/>
<path d="M349.024 10.9316C351.153 10.9316 352.927 11.2343 354.346 11.8436C355.76 12.449 356.87 13.2548 357.667 14.2533C358.468 15.2557 358.96 16.3367 359.16 17.4885L352.556 19.6898C352.361 18.4752 352.001 17.5671 351.486 16.9617C350.966 16.3564 350.216 16.0537 349.235 16.0537C348.336 16.0537 347.586 16.2581 346.984 16.6669C346.383 17.0757 345.925 17.7244 345.617 18.6128C345.308 19.5012 345.156 20.6372 345.156 22.0209C345.156 23.4046 345.324 24.5249 345.66 25.3819C345.996 26.2428 346.472 26.8639 347.09 27.2452C347.707 27.6265 348.434 27.8152 349.274 27.8152C349.977 27.8152 350.556 27.6815 351.021 27.4142C351.486 27.1469 351.868 26.7577 352.177 26.2506C352.486 25.7435 352.681 25.1224 352.767 24.3873L359.203 26.459C359.007 27.7012 358.48 28.8058 357.628 29.7806C356.776 30.7555 355.643 31.5221 354.24 32.0842C352.838 32.6463 351.196 32.9293 349.321 32.9293C347.023 32.9293 345.015 32.4969 343.307 31.64C341.596 30.7791 340.279 29.5251 339.353 27.8741C338.431 26.2231 337.966 24.2419 337.966 21.9305C337.966 19.6191 338.427 17.6339 339.353 15.9869C340.279 14.3359 341.576 13.0819 343.245 12.221C344.909 11.3601 346.84 10.9316 349.024 10.9316Z" fill="#202020"/>
<path d="M366.474 8.89885C365.017 8.89885 363.958 8.62368 363.302 8.07335C362.641 7.52301 362.313 6.65427 362.313 5.47105C362.313 4.28782 362.641 3.37584 363.302 2.8255C363.958 2.27517 365.017 2 366.474 2C367.932 2 368.956 2.27517 369.628 2.8255C370.304 3.37584 370.64 4.25638 370.64 5.47105C370.64 6.68571 370.304 7.52301 369.628 8.07335C368.956 8.62368 367.904 8.89885 366.474 8.89885ZM370.05 11.3518V32.5043H362.899V11.3518H370.05Z" fill="#202020"/>
<path d="M382.878 32.9323C381.139 32.9323 379.619 32.4999 378.314 31.643C377.009 30.7821 376.001 29.536 375.285 27.9007C374.57 26.2654 374.215 24.3038 374.215 22.02C374.215 19.7361 374.586 17.6448 375.332 16.0095C376.075 14.3742 377.11 13.1202 378.443 12.2436C379.771 11.371 381.311 10.9307 383.049 10.9307C384.956 10.9307 386.492 11.5164 387.656 12.6878C388.817 13.8593 389.571 15.3491 389.907 17.1534L389.231 18.0418V2.38477H396.381V32.5078H389.989L389.528 25.3141L390.368 25.9509C390.2 27.3621 389.77 28.5886 389.086 29.6303C388.399 30.6759 387.531 31.4857 386.476 32.0636C385.425 32.6414 384.226 32.9323 382.881 32.9323H382.878ZM385.359 27.6412C386.171 27.6412 386.867 27.425 387.441 26.9848C388.016 26.5484 388.457 25.892 388.766 25.0154C389.075 24.1427 389.227 23.0695 389.227 21.7998C389.227 20.6166 389.078 19.6063 388.785 18.7769C388.492 17.9475 388.059 17.3107 387.48 16.8704C386.906 16.434 386.21 16.2139 385.398 16.2139C384.167 16.2139 383.194 16.6738 382.479 17.5898C381.764 18.5057 381.408 19.9523 381.408 21.9256C381.408 23.899 381.756 25.3456 382.459 26.2615C383.159 27.1774 384.128 27.6373 385.363 27.6373L385.359 27.6412Z" fill="#202020"/>
<path d="M411.768 32.9333C409.44 32.9333 407.431 32.497 405.735 31.6204C404.036 30.7477 402.727 29.4898 401.805 27.8545C400.879 26.2192 400.414 24.2459 400.414 21.9305C400.414 19.6152 400.875 17.6418 401.805 16.0065C402.727 14.3713 404.024 13.1173 405.692 12.2407C407.361 11.368 409.275 10.9277 411.432 10.9277C413.589 10.9277 415.535 11.3601 417.09 12.2171C418.645 13.078 419.829 14.2612 420.642 15.7707C421.455 17.2802 421.861 19.0059 421.861 20.9517C421.861 21.4588 421.846 21.9659 421.818 22.4769C421.791 22.984 421.748 23.4046 421.693 23.7466H405.04V19.8943H418.54L415.133 21.2072C415.133 19.513 414.828 18.2197 414.226 17.3156C413.624 16.4114 412.691 15.9633 411.428 15.9633C410.53 15.9633 409.768 16.1756 409.139 16.5962C408.51 17.0168 408.029 17.6851 407.709 18.5853C407.384 19.4894 407.224 20.6412 407.224 22.0524C407.224 23.4636 407.408 24.5564 407.771 25.4173C408.135 26.2782 408.654 26.8993 409.326 27.2766C409.998 27.6579 410.811 27.8466 411.764 27.8466C412.831 27.8466 413.679 27.6344 414.308 27.2137C414.937 26.7931 415.41 26.1995 415.715 25.4369L421.435 27.3395C421.044 28.5542 420.365 29.5762 419.396 30.4057C418.427 31.2351 417.278 31.8641 415.945 32.2886C414.613 32.7092 413.218 32.9215 411.761 32.9215L411.768 32.9333Z" fill="#202020"/>
<path d="M20.0508 27.1183C22.0605 25.6526 24.28 24.4305 26.4859 23.2607C28.3603 22.2661 32.303 20.5 32.303 20.5C29.6888 22.9329 26.4701 26.5971 24.2845 29.9973C22.0898 33.4089 21.7627 36.5019 19.1102 39.5971C17.8787 41.0332 14.987 41.7342 13.7735 39.8839C12.4586 37.8765 13.133 35.6803 14.157 33.6957C15.578 30.9418 17.6666 28.8594 20.0508 27.1206V27.1183Z" fill="#D1AA09"/>
<path d="M20.0508 13.8817C22.0605 15.3474 24.28 16.5695 26.4859 17.7393C28.3603 18.7339 32.303 20.5 32.303 20.5C29.6888 18.0671 26.4701 14.4029 24.2845 11.0027C22.0898 7.59107 21.7627 4.49812 19.1102 1.40289C17.8787 -0.033206 14.987 -0.734184 13.7735 1.11613C12.4586 3.12347 13.133 5.31972 14.157 7.30431C15.578 10.0582 17.6666 12.1406 20.0508 13.8794V13.8817Z" fill="#D1AA09"/>
<path d="M10.6198 25.0823L0 20.8649L10.6198 16.4327C10.6198 16.4327 16.0756 14.4 19.7059 16.4327C23.0286 18.2941 23.4639 22.735 19.7059 25.0823C16.0756 27.3494 10.6198 25.0823 10.6198 25.0823Z" fill="#D1AA09"/>
<path d="M443.252 14.8817C441.242 16.3474 439.023 17.5695 436.817 18.7393C434.943 19.7339 431 21.5 431 21.5C433.614 19.0671 436.833 15.4029 439.019 12.0027C441.213 8.59107 441.54 5.49812 444.193 2.40289C445.424 0.966794 448.316 0.265816 449.529 2.11613C450.844 4.12347 450.17 6.31972 449.146 8.30431C447.725 11.0582 445.636 13.1406 443.252 14.8794V14.8817Z" fill="#D1AA09"/>
<path d="M443.252 28.1183C441.242 26.6526 439.023 25.4305 436.817 24.2607C434.943 23.2661 431 21.5 431 21.5C433.614 23.9329 436.833 27.5971 439.019 30.9973C441.213 34.4089 441.54 37.5019 444.193 40.5971C445.424 42.0332 448.316 42.7342 449.529 40.8839C450.844 38.8765 450.17 36.6803 449.146 34.6957C447.725 31.9418 445.636 29.8594 443.252 28.1206V28.1183Z" fill="#D1AA09"/>
<path d="M452.683 16.9177L463.303 21.1351L452.683 25.5673C452.683 25.5673 447.227 27.6 443.597 25.5673C440.274 23.7059 439.839 19.265 443.597 16.9177C447.227 14.6506 452.683 16.9177 452.683 16.9177Z" fill="#D1AA09"/>
</svg>
