<svg width="20" height="24" viewBox="0 0 20 24" fill="none" xmlns="http://www.w3.org/2000/svg">
<path d="M17.3214 5.51704C17.1695 5.43928 17.0217 5.35404 16.8784 5.26164C16.4618 4.98882 16.0798 4.66734 15.7408 4.30415C14.8923 3.34248 14.5754 2.36687 14.4587 1.68381H14.4634C14.3659 1.11684 14.4062 0.75 14.4123 0.75H10.5479V15.5526C10.5479 15.7514 10.5479 15.9478 10.5395 16.1419C10.5395 16.166 10.5372 16.1883 10.5358 16.2143C10.5358 16.225 10.5358 16.2361 10.5334 16.2473C10.5334 16.2501 10.5334 16.2529 10.5334 16.2556C10.4927 16.7868 10.3208 17.2998 10.0329 17.7497C9.74505 18.1996 9.34998 18.5725 8.88247 18.8356C8.39523 19.1102 7.84414 19.2542 7.28357 19.2535C5.4831 19.2535 4.02388 17.7991 4.02388 16.003C4.02388 14.2069 5.4831 12.7526 7.28357 12.7526C7.62439 12.7523 7.96311 12.8054 8.28716 12.91L8.29185 9.01221C7.30811 8.88633 6.30872 8.96378 5.35671 9.23967C4.4047 9.51556 3.52074 9.9839 2.7606 10.6152C2.09454 11.1884 1.53457 11.8725 1.10591 12.6365C0.942787 12.9151 0.327318 14.0346 0.252787 15.8517C0.205912 16.883 0.518568 17.9515 0.66763 18.393V18.4023C0.76138 18.6624 1.12466 19.5497 1.71669 20.2978C2.19409 20.8979 2.75811 21.425 3.3906 21.8622V21.8529L3.39997 21.8622C5.27075 23.1215 7.34497 23.0389 7.34497 23.0389C7.70404 23.0245 8.90685 23.0389 10.2728 22.3976C11.7878 21.6867 12.6503 20.6275 12.6503 20.6275C13.2013 19.9946 13.6394 19.2734 13.9459 18.4947C14.2956 17.5841 14.4123 16.492 14.4123 16.0555V8.20238C14.4592 8.23024 15.0836 8.63934 15.0836 8.63934C15.0836 8.63934 15.9831 9.21049 17.3865 9.58244C18.3934 9.84712 19.75 9.90284 19.75 9.90284V6.10258C19.2747 6.15366 18.3095 6.00507 17.3214 5.51704Z" fill="#656565"/>
</svg>
