<svg width="53" height="53" viewBox="0 0 53 53" fill="none" xmlns="http://www.w3.org/2000/svg">
<circle cx="26.5" cy="26.5" r="26.5" fill="url(#paint0_linear_841_2266)"/>
<path d="M19.8924 21.1245C21.4892 23.3965 23.2776 25.9514 23.8707 26.7908C24.7102 27.9861 24.9291 28.3602 24.8744 28.4879C24.8288 28.5792 23.0678 30.6048 20.96 33.0045C18.8523 35.3952 17.1186 37.3934 17.1004 37.4482C17.0821 37.4938 17.4288 37.5303 17.9216 37.5303H18.7701L22.2374 33.5703C24.1444 31.3895 25.7412 29.6103 25.7868 29.6285C25.8325 29.6376 27.1099 31.4078 28.6245 33.5703L31.371 37.4847L34.4003 37.512C36.0701 37.5211 37.4296 37.512 37.4296 37.4938C37.4296 37.4664 35.5774 34.8112 33.3236 31.5903C31.0608 28.3693 29.2268 25.6959 29.2359 25.6594C29.2541 25.5955 31.8546 22.6301 36.1796 17.712L36.8092 17.0003H35.9058H35.0117L31.7269 20.7413C29.9202 22.8034 28.4147 24.4823 28.3873 24.4823C28.3599 24.4823 27.1555 22.7943 25.7047 20.7413L23.086 17.0003H20.0384H17L19.8924 21.1245ZM28.5972 27.247C32.101 32.156 34.966 36.189 34.966 36.2164C34.966 36.2346 34.3547 36.2529 33.5974 36.2529H32.2378L25.8416 27.3109C22.3287 22.3837 19.4545 18.3416 19.4545 18.3142C19.4545 18.2959 20.0841 18.2868 20.8414 18.2959L22.2374 18.3233L28.5972 27.247Z" fill="white"/>
<defs>
<linearGradient id="paint0_linear_841_2266" x1="26.5" y1="0" x2="26.5" y2="53" gradientUnits="userSpaceOnUse">
<stop offset="0.369792" stop-color="#9C7A07"/>
<stop offset="1" stop-color="#745C0B"/>
</linearGradient>
</defs>
</svg>
