<svg width="23" height="23" viewBox="0 0 23 23" fill="none" xmlns="http://www.w3.org/2000/svg">
<g clip-path="url(#clip0_1106_2674)">
<path d="M3.47499 4.47843C5.20898 6.94526 7.15106 9.71921 7.79511 10.6306C8.7067 11.9284 8.9445 12.3346 8.88505 12.4733C8.83551 12.5724 6.92316 14.7717 4.63429 17.3773C2.34542 19.9729 0.462795 22.1425 0.442978 22.202C0.423161 22.2515 0.799686 22.2911 1.33475 22.2911H2.25624L6.02148 17.9915C8.09237 15.6237 9.82636 13.6919 9.87591 13.7117C9.92545 13.7216 11.3126 15.6435 12.9575 17.9915L15.9399 22.2416L19.2296 22.2713C21.0428 22.2812 22.5192 22.2713 22.5192 22.2515C22.5192 22.2218 20.5078 19.3388 18.0604 15.8417C15.603 12.3445 13.6114 9.44182 13.6213 9.40219C13.6412 9.33284 16.4651 6.11308 21.1617 0.773232L21.8454 0.000488281H20.8645H19.8934L16.3264 4.06234C14.3645 6.30131 12.7296 8.12419 12.6998 8.12419C12.6701 8.12419 11.3622 6.29141 9.78673 4.06234L6.94298 0.000488281H3.63353H0.333984L3.47499 4.47843ZM12.9277 11.126C16.7326 16.4559 19.8439 20.8348 19.8439 20.8645C19.8439 20.8843 19.18 20.9041 18.3576 20.9041H16.8812L9.93536 11.1953C6.12057 5.84559 2.99938 1.45681 2.99938 1.42709C2.99938 1.40727 3.68307 1.39737 4.50548 1.40727L6.02148 1.43699L12.9277 11.126Z" fill="#656565"/>
</g>
<defs>
<clipPath id="clip0_1106_2674">
<rect width="23" height="23" fill="white"/>
</clipPath>
</defs>
</svg>
