<svg width="23" height="23" viewBox="0 0 23 23" fill="none" xmlns="http://www.w3.org/2000/svg">
<path d="M3.47499 4.4783C5.20898 6.94513 7.15106 9.71908 7.79511 10.6305C8.7067 11.9283 8.9445 12.3345 8.88505 12.4732C8.83551 12.5723 6.92316 14.7716 4.63429 17.3772C2.34542 19.9728 0.462795 22.1424 0.442978 22.2019C0.423161 22.2514 0.799686 22.291 1.33475 22.291H2.25624L6.02148 17.9914C8.09237 15.6236 9.82636 13.6918 9.87591 13.7116C9.92545 13.7215 11.3126 15.6434 12.9575 17.9914L15.9399 22.2415L19.2296 22.2712C21.0428 22.2811 22.5192 22.2712 22.5192 22.2514C22.5192 22.2217 20.5078 19.3387 18.0604 15.8416C15.603 12.3444 13.6114 9.44169 13.6213 9.40206C13.6412 9.33271 16.4651 6.11295 21.1617 0.7731L21.8454 0.000356674H20.8645H19.8934L16.3264 4.06221C14.3645 6.30118 12.7296 8.12406 12.6998 8.12406C12.6701 8.12406 11.3622 6.29128 9.78673 4.06221L6.94298 0.000356674H3.63353H0.333984L3.47499 4.4783ZM12.9277 11.1259C16.7326 16.4558 19.8439 20.8347 19.8439 20.8644C19.8439 20.8842 19.18 20.904 18.3576 20.904H16.8812L9.93536 11.1952C6.12057 5.84546 2.99938 1.45668 2.99938 1.42696C2.99938 1.40714 3.68307 1.39724 4.50548 1.40714L6.02148 1.43686L12.9277 11.1259Z" fill="white"/>
</svg>
