<svg width="32" height="23" viewBox="0 0 32 23" fill="none" xmlns="http://www.w3.org/2000/svg">
<path d="M30.2343 3.83121C29.9482 2.29927 28.5852 1.18365 27.0034 0.835356C24.6364 0.348291 20.2556 0 15.5159 0C10.7789 0 6.32804 0.348291 3.95816 0.835356C2.37918 1.18365 1.01335 2.22852 0.727283 3.83121C0.438413 5.57266 0.152344 8.01071 0.152344 11.1453C0.152344 14.28 0.438413 16.718 0.7974 18.4595C1.08627 19.9914 2.4493 21.107 4.02828 21.4553C6.54119 21.9424 10.849 22.2907 15.5888 22.2907C20.3285 22.2907 24.6364 21.9424 27.1493 21.4553C28.7282 21.107 30.0913 20.0621 30.3801 18.4595C30.6662 16.718 31.0252 14.2092 31.0981 11.1453C30.9523 8.01071 30.5933 5.57266 30.2343 3.83121ZM11.6399 16.0214V6.26925L20.3986 11.1453L11.6399 16.0214Z" fill="white"/>
</svg>
