<svg width="53" height="53" viewBox="0 0 53 53" fill="none" xmlns="http://www.w3.org/2000/svg">
<circle cx="26.5" cy="26.5" r="26.5" fill="url(#paint0_linear_841_2267)"/>
<path d="M40.7015 19.5286C40.438 18.1177 39.1829 17.0902 37.7263 16.7694C35.5465 16.3208 31.5124 16 27.1477 16C22.7856 16 18.687 16.3208 16.5047 16.7694C15.0506 17.0902 13.7929 18.0525 13.5294 19.5286C13.2634 21.1325 13 23.378 13 26.265C13 29.152 13.2634 31.3975 13.594 33.0014C13.86 34.4123 15.1152 35.4398 16.5692 35.7606C18.8833 36.2092 22.8502 36.53 27.2149 36.53C31.5796 36.53 35.5465 36.2092 37.8606 35.7606C39.3146 35.4398 40.5698 34.4775 40.8358 33.0014C41.0992 31.3975 41.4298 29.0869 41.4969 26.265C41.3626 23.378 41.0321 21.1325 40.7015 19.5286ZM23.5785 30.7559V21.7741L31.6441 26.265L23.5785 30.7559Z" fill="white" fill-opacity="0.9"/>
<defs>
<linearGradient id="paint0_linear_841_2267" x1="26.5" y1="0" x2="26.5" y2="53" gradientUnits="userSpaceOnUse">
<stop offset="0.369792" stop-color="#9C7A07"/>
<stop offset="1" stop-color="#745C0B"/>
</linearGradient>
</defs>
</svg>
